<svg id="Layer_2" data-name="Layer 2" xmlns="http://www.w3.org/2000/svg" viewBox="0 0 700 700"><defs><style>.cls-1{fill:#ffcee5;}.cls-2{fill:#fff;}.cls-3{fill:#ffa5b6;}</style></defs><title>rabbit</title><rect class="cls-1" x="-15.47" y="-10.79" width="737.18" height="735.14"/><path class="cls-2" d="M253.72,293.47c-56.86,46.47-64.59,138.94-9.22,189.76,36.37,33.38,89.77,42.87,137.78,34.06,70.44-12.93,93.63-56.41,93.63-78.35s-16.14-34.47-16.14-34.47C480,363.84,459,307.69,422.58,282.6,371.28,247.3,300,255.64,253.72,293.47Z"/><path class="cls-3" d="M348,260.14c26.18,0,52.28,7.1,74.61,22.46C459,307.69,480,363.84,459.77,404.47c0,0,16.14,12.54,16.14,34.47s-23.19,65.42-93.63,78.35a189,189,0,0,1-34.08,3.11c-37.84,0-75.79-11.55-103.7-37.17-55.37-50.82-47.64-143.29,9.22-189.76C279.86,272.1,314,260.14,348,260.14m0-6.45c-35.45,0-71.29,12.67-98.34,34.78-30.14,24.64-48.09,61.9-49.25,102.24-1.07,37.65,13.41,73.11,39.75,97.28,27.31,25.06,65.69,38.86,108.07,38.86a196,196,0,0,0,35.25-3.21c40.72-7.47,64.2-24.61,76.72-37.68,13.9-14.49,22.2-32.07,22.2-47,0-17.82-9.35-30.25-14.8-36,8.36-19.82,8.75-43.5,1-67.26-7.85-24-23.27-45.31-42.32-58.42-22.44-15.43-49.5-23.59-78.27-23.59Z"/><path class="cls-3" d="M323.19,364.65c-6.81,0-12.15,6.87-12.15,15.65S316.38,396,323.19,396s12.16-6.88,12.16-15.66S330,364.65,323.19,364.65Z"/><path class="cls-3" d="M323.19,399.19c-8.62,0-15.38-8.29-15.38-18.89s6.76-18.88,15.38-18.88,15.39,8.29,15.39,18.88S331.82,399.19,323.19,399.19Zm0-31.32c-5,0-8.92,5.46-8.92,12.43s3.92,12.43,8.92,12.43,8.93-5.46,8.93-12.43S328.2,367.87,323.19,367.87Z"/><path class="cls-3" d="M423.54,364.65c-6.82,0-12.15,6.87-12.15,15.65S416.72,396,423.54,396s12.15-6.88,12.15-15.66S430.36,364.65,423.54,364.65Z"/><path class="cls-3" d="M423.54,399.19c-8.63,0-15.38-8.29-15.38-18.89s6.75-18.88,15.38-18.88,15.38,8.29,15.38,18.88S432.17,399.19,423.54,399.19Zm0-31.32c-5,0-8.93,5.46-8.93,12.43s3.92,12.43,8.93,12.43,8.93-5.46,8.93-12.43S428.54,367.87,423.54,367.87Z"/><path class="cls-3" d="M315.91,369.51a3.26,3.26,0,0,1-2-.7,3.22,3.22,0,0,1-.52-4.51,20.24,20.24,0,0,1,15.35-6.89c7.09,0,13.06,5.63,13.31,5.87a3.23,3.23,0,0,1-4.46,4.67c-1.2-1.13-5.14-4.08-8.85-4.08a13.74,13.74,0,0,0-10.3,4.45A3.25,3.25,0,0,1,315.91,369.51Z"/><path class="cls-3" d="M417.6,342.74a3.23,3.23,0,0,1-2.84-4.74,20.24,20.24,0,0,1,13.93-9.45c7-1.22,13.84,3.29,14.12,3.48a3.23,3.23,0,0,1-3.58,5.37c-1.38-.91-5.77-3.11-9.42-2.49a13.71,13.71,0,0,0-9.37,6.17A3.27,3.27,0,0,1,417.6,342.74Z"/><path class="cls-3" d="M416.26,369.51a3.22,3.22,0,0,1-2.54-5.21,20.27,20.27,0,0,1,15.36-6.89c7.09,0,13.05,5.63,13.3,5.87a3.23,3.23,0,0,1-4.46,4.67c-1.2-1.13-5.13-4.08-8.84-4.08a13.74,13.74,0,0,0-10.3,4.45A3.26,3.26,0,0,1,416.26,369.51Z"/><ellipse class="cls-2" cx="325.81" cy="375.35" rx="3.58" ry="4.49"/><ellipse class="cls-2" cx="426.08" cy="375.35" rx="3.58" ry="4.49"/><path class="cls-3" d="M332.1,341.81a3.23,3.23,0,0,1-2.7-1.45,13.72,13.72,0,0,0-9.85-5.37c-3.69-.33-7.88,2.24-9.18,3.26a3.23,3.23,0,0,1-4-5.06c.27-.22,6.74-5.31,13.78-4.63a20.25,20.25,0,0,1,14.66,8.26,3.23,3.23,0,0,1-2.7,5Z"/><path class="cls-1" d="M384.43,417c5.65.19,14.23-14.75,12.2-17.94s-24-4.78-27.35-.19S384.43,417,384.43,417Z"/><path class="cls-3" d="M384.54,420.23h-.23l-1,0-.8-.59c-3.69-2.7-15.83-12-16.8-18.43a5.47,5.47,0,0,1,1-4.22c2.8-3.79,10.67-4.33,16.78-4.13,5,.17,13.63,1,15.88,4.51,2,3.18-.15,8.42-2.34,12.25C395.57,412.1,390.46,420.23,384.54,420.23Zm-12.36-19.67c.77,2.31,6.56,8.09,13,13a10.89,10.89,0,0,0,2.85-2.43c3.23-3.61,5.36-8.33,5.64-10.25C389.83,399.07,375.36,398.49,372.18,400.56Zm22,.6Zm-.52-.85Z"/><path class="cls-3" d="M357.68,462.05a45.3,45.3,0,0,1-10.87-1.38,3.23,3.23,0,1,1,1.55-6.27,35.33,35.33,0,0,0,14.92.7c13.46-2.47,18.29-11.67,18.48-12.06a3.32,3.32,0,0,1,3.18-1.76,3.24,3.24,0,0,1,2.81,2.29c.09.28,2.5,7.51,12.66,8.5a18.23,18.23,0,0,0,10.87-2.32,3.23,3.23,0,0,1,3.18,5.62,24.38,24.38,0,0,1-14.68,3.12c-8.19-.79-12.89-4.66-15.45-8a34,34,0,0,1-19.89,10.95A37.61,37.61,0,0,1,357.68,462.05Z"/><path class="cls-3" d="M384.65,447.72a3.31,3.31,0,0,1-1.26-.26,3.23,3.23,0,0,1-1.71-4.23,42.22,42.22,0,0,0,2.92-13.56,35.37,35.37,0,0,0-2.05-12.47,3.23,3.23,0,0,1,6-2.43,41.28,41.28,0,0,1,2.51,15.05,48.06,48.06,0,0,1-3.43,15.94A3.24,3.24,0,0,1,384.65,447.72Z"/><path class="cls-3" d="M482.83,433.63a3.24,3.24,0,0,1-1.93-.64c-26.31-19.65-64.24-10.31-64.62-10.22a3.23,3.23,0,1,1-1.6-6.25c1.68-.43,41.26-10.23,70.08,11.29a3.23,3.23,0,0,1-1.93,5.82Z"/><path class="cls-3" d="M411.21,414.78a3.23,3.23,0,0,1-1.19-6.23c2-.78,48.45-18.93,89.69-1.18a3.23,3.23,0,0,1-2.55,5.93c-38.74-16.68-84.29,1.07-84.75,1.25A3.16,3.16,0,0,1,411.21,414.78Z"/><path class="cls-2" d="M345.3,277.56c8.25-46.21-29.07-179.69-71.36-155.71-56.53,32.07-4.34,147.63,14.81,172.39"/><path class="cls-3" d="M288.75,297.46a3.25,3.25,0,0,1-2.56-1.25c-14.73-19-49.13-90.9-39.3-139.85,3.44-17.13,12-29.69,25.46-37.31,8.75-5,18.09-4.26,27,2,14.78,10.47,29.15,37.07,39.41,73,9.24,32.33,13.05,65.31,9.71,84a3.23,3.23,0,0,1-6.36-1.13c3.18-17.82-.57-49.66-9.55-81.12-9.73-34-23.54-60-36.94-69.49-6.92-4.9-13.5-5.46-20.1-1.72-11.74,6.67-19.25,17.76-22.31,33-9,44.72,22.62,114.63,38.08,134.62a3.22,3.22,0,0,1-2.55,5.2Z"/><path class="cls-2" d="M433.22,292.09c12.72-13.57,62.08-116.88,31.52-146.7C414.1,96,385.41,237.63,387.48,282.52"/><path class="cls-3" d="M433.22,295.32a3.22,3.22,0,0,1-2.36-5.43c12.34-13.17,60-114.5,31.63-142.19-9.1-8.87-17.43-11.43-25.46-7.83-29.94,13.44-48,106.94-46.32,142.5a3.23,3.23,0,0,1-6.46.3c-1.69-36.7,16-133.35,50.13-148.69,10.58-4.75,21.56-1.69,32.62,9.1,32.3,31.52-17.6,136.47-31.43,151.22A3.19,3.19,0,0,1,433.22,295.32Z"/><path class="cls-3" d="M290.39,435.93a3.22,3.22,0,0,1-2.08-5.69c27.49-23.2,67.59-15.77,69.28-15.45a3.23,3.23,0,0,1-1.22,6.34c-.39-.07-38.8-7.13-63.9,14A3.24,3.24,0,0,1,290.39,435.93Z"/><path class="cls-3" d="M273.62,416.83a3.23,3.23,0,0,1-1.45-6.11c40.11-20.18,87.6-4.82,89.61-4.15a3.23,3.23,0,0,1-2,6.12c-.46-.15-47-15.16-84.67,3.8A3.28,3.28,0,0,1,273.62,416.83Z"/><path class="cls-1" d="M301.73,285.36c3.35,3.66,17.72.23,21.34-3.94,6.94-8-21.14-133-41-125C244.16,172,296,279.14,301.73,285.36Z"/><path class="cls-3" d="M307.07,290.14c-3.55,0-6.15-.87-7.72-2.6-5.49-6-41.15-79.14-33-115.2,2.12-9.43,7-15.77,14.57-18.86,4.74-1.94,9.59.5,14.43,7.25,16.19,22.6,38.48,113.27,30.2,122.81-3.35,3.85-12.1,6.52-18.16,6.6Zm-3-7c2,1.69,13.71-.62,16.53-3.87,4-8.24-14.89-98.39-32.69-117.43-1.32-1.42-3.2-3-4.62-2.41-5.54,2.26-9.05,6.92-10.7,14.24C264.84,208,300.5,279.15,304.1,283.17Zm0,0Z"/><path class="cls-1" d="M421.39,287.78c-4.36,2.39-11.86.51-15.7-3.45-7.37-7.6,27.34-125.89,46.89-117.17C482.59,180.54,426.84,284.8,421.39,287.78Z"/><path class="cls-3" d="M416.75,292a19.34,19.34,0,0,1-13.38-5.46c-8.64-8.91,16.92-89.5,33.1-112.65,6.2-8.85,12.07-12.12,17.43-9.72,6.68,3,10.28,9.58,10.69,19.62C466,217,429.61,287,422.94,290.62h0A13,13,0,0,1,416.75,292Zm-8.59-9.8c2.92,2.86,8.56,4.23,11.49,2.81,5.61-5.43,42.69-75.11,38.15-104.59-.83-5.38-3-8.77-6.53-10.36-1.68-.74-4,1.14-5.71,2.85C426.81,192.1,404.77,273.86,408.16,282.24Zm11.4,2.9Z"/></svg>