<?xml version="1.0" encoding="utf-8"?>
<!-- Generator: Adobe Illustrator 24.0.1, SVG Export Plug-In . SVG Version: 6.00 Build 0)  -->
<svg version="1.1" id="Layer_1" xmlns="http://www.w3.org/2000/svg" xmlns:xlink="http://www.w3.org/1999/xlink" x="0px" y="0px"
	 viewBox="0 0 500 500" style="enable-background:new 0 0 500 500;" xml:space="preserve">
<style type="text/css">
	.st0{fill:#FFFFFF;}
	.st1{fill:#FFCEE5;}
	.st2{fill:#FFA5B6;}
</style>
<title>type</title>
<g id="Layer_3">
	<path class="st0" d="M130.2,97.3c-80.5,65.8-91.5,196.8-13.1,268.8c51.5,47.3,127.2,60.7,195.2,48.2
		c99.8-18.3,132.6-79.9,132.6-111S422,254.6,422,254.6c28.6-57.6-1-137.1-52.7-172.6C296.7,31.9,195.7,43.8,130.2,97.3z"/>
	<path class="st1" d="M81,146.7c0,0,9.1,51,40.6,56.2s46,22.1,45.3,28.8c-0.9,7.9-27.2,42.1-53.5,42.1c-23,0-47.5,16.8-53.5-3.5
		s6.1-90.6,14.4-101.1C79.3,162.7,81.6,154.7,81,146.7z"/>
	<ellipse class="st2" cx="312.1" cy="261.8" rx="3.9" ry="7"/>
	<ellipse class="st2" cx="334.6" cy="261.8" rx="3.9" ry="7"/>
	<path class="st2" d="M330.4,333.3c-8.2,0-15.8-4.8-24.5-10.3c-13.9-8.7-31.1-19.5-59.9-18.9c-2.5,0-4.6-2.1-4.5-4.6
		c0-2.4,1.9-4.4,4.3-4.5c31.5-0.7,50.9,11.4,65,20.3c8.3,5.2,15,9.4,20.8,8.8c6.4-0.6,10.9-7.6,16.1-15.7
		c6.9-10.7,15.5-24.1,32.6-27c2.5-0.4,4.8,1.4,5.2,3.9c0.3,2.4-1.2,4.6-3.6,5.1c-13.1,2.3-19.9,12.8-26.5,23
		c-6,9.2-12.1,18.8-22.9,19.8C331.7,333.3,331.1,333.3,330.4,333.3z"/>
	<path class="st1" d="M195.1,53.7c43.3,4.7,35.5,16,49.4,29.1s52.2,35.8,57.2,32.9c19.2-11,34.4-17.9,31.8-35.7s3.7-22.6-23.2-28.2
		S195.1,53.7,195.1,53.7z"/>
	<path class="st1" d="M95.9,124.8c9,24.8,1.5,51.6,15.8,50.8s54.8-26,57-31.6c13.1-33.3-18.5-41.4-23.7-48.2
		C128.4,73.9,95.9,124.8,95.9,124.8z"/>
	<path class="st1" d="M145.7,281.8c7.1,25.4-1.5,29.2,12.8,29.6c14.3,0.3,26-15.3,26.5-21.3s-16.2-34.4-22.6-28.8
		S145.7,281.8,145.7,281.8z"/>
	<path class="st1" d="M338.4,105.2c5.5-14.6-0.7-16.8,9.7-17.1s18.9,8.5,19.1,11.9s-12.2,19.9-16.9,16.8S338.4,105.2,338.4,105.2z"
		/>
	<path class="st2" d="M228.6,198.1c-9.7,0-17.2,9.7-17.2,22.2s7.6,22.2,17.2,22.2s17.2-9.7,17.2-22.2S238.2,198.1,228.6,198.1z"/>
	<path class="st2" d="M228.6,247.1c-12.2,0-21.8-11.8-21.8-26.8s9.6-26.8,21.8-26.8s21.8,11.8,21.8,26.8S240.8,247.1,228.6,247.1z
		 M228.6,202.7c-7.1,0-12.6,7.7-12.6,17.6s5.5,17.6,12.6,17.6s12.6-7.7,12.6-17.6S235.7,202.7,228.6,202.7L228.6,202.7z"/>
	<path class="st2" d="M370.7,198.1c-9.6,0-17.2,9.7-17.2,22.2s7.6,22.2,17.2,22.2s17.2-9.7,17.2-22.2S380.4,198.1,370.7,198.1z"/>
	<path class="st2" d="M370.7,247.1c-12.2,0-21.8-11.8-21.8-26.8s9.6-26.8,21.8-26.8s21.8,11.8,21.8,26.8S382.9,247.1,370.7,247.1z
		 M370.7,202.7c-7.1,0-12.6,7.7-12.6,17.6s5.6,17.6,12.6,17.6s12.6-7.7,12.6-17.6S377.8,202.7,370.7,202.7L370.7,202.7z"/>
	<path class="st2" d="M202.2,155.1c-2.5,0-4.6-2.1-4.6-4.6c0-1,0.3-2,1-2.8c5.5-6.2,13.4-9.8,21.8-9.7c10,0,18.5,8,18.8,8.3
		c1.8,1.7,1.9,4.6,0.1,6.5c-1.7,1.8-4.6,1.9-6.5,0.1c-1.7-1.6-7.3-5.8-12.5-5.8c-5.5-0.1-10.8,2.2-14.6,6.3
		C204.9,154.5,203.6,155.1,202.2,155.1z"/>
	<path class="st2" d="M218.3,205c-2.5,0-4.6-2-4.6-4.6c0-1,0.3-2,1-2.8c5.5-6.3,13.4-9.8,21.8-9.8c10,0,18.5,8,18.9,8.3
		c1.8,1.7,1.9,4.6,0.1,6.5s-4.6,1.9-6.5,0.1c-1.7-1.6-7.3-5.8-12.5-5.8c-5.5-0.1-10.8,2.2-14.6,6.3C221,204.4,219.6,205,218.3,205z"
		/>
	<path class="st2" d="M361.4,155.1c-2.5,0-4.6-2.1-4.6-4.6c0-1,0.3-2,1-2.8c5.5-6.2,13.4-9.8,21.8-9.7c10,0,18.5,8,18.8,8.3
		c1.8,1.7,1.9,4.6,0.1,6.5c-1.7,1.8-4.6,1.9-6.5,0.1c-1.7-1.6-7.3-5.8-12.5-5.8c-5.5-0.1-10.8,2.2-14.6,6.3
		C364,154.5,362.7,155.1,361.4,155.1z"/>
	<path class="st2" d="M360.4,205c-2.5,0-4.6-2-4.6-4.6c0-1,0.3-2,1-2.8c5.5-6.3,13.4-9.8,21.8-9.8c10,0,18.5,8,18.8,8.3
		c1.8,1.7,1.9,4.6,0.1,6.5s-4.6,1.9-6.5,0.1c-1.7-1.6-7.3-5.8-12.5-5.8c-5.5-0.1-10.8,2.2-14.6,6.3C363.1,204.4,361.8,205,360.4,205
		z"/>
	<ellipse class="st0" cx="232.3" cy="213.3" rx="5.1" ry="6.4"/>
	<ellipse class="st0" cx="374.3" cy="213.3" rx="5.1" ry="6.4"/>
	<path class="st1" d="M445.6,286c0,0-3,6.5-19.6,5.4s-22.4,34.4-22.4,34.4l23.4,14.8c0,0,14.7-3,19.4-10.8
		C453.2,318.6,450.3,284.5,445.6,286z"/>
	<path class="st2" d="M263.7,50.1c37.1,0,74.1,10.1,105.7,31.8C421,117.5,450.6,197,422,254.6c0,0,22.9,17.8,22.9,48.8
		S412,396,312.3,414.4c-15.9,2.9-32.1,4.4-48.3,4.4c-53.6,0-107.4-16.4-146.9-52.6c-78.4-72-67.5-203,13.1-268.8
		C167.2,67.1,215.5,50.1,263.7,50.1 M263.7,41c-50.2,0-101,17.9-139.3,49.3c-42.7,34.9-68.1,87.7-69.8,144.8
		c-1.5,53.3,19,103.6,56.3,137.8c38.7,35.5,93,55,153.1,55c16.7,0,33.5-1.5,49.9-4.6c57.7-10.6,90.9-34.9,108.7-53.4
		c19.7-20.5,31.4-45.4,31.4-66.6c0-25.2-13.2-42.9-21-51c11.8-28.1,12.4-61.6,1.4-95.3c-11.1-34-33-64.2-60-82.8
		C342.8,52.5,304.4,41,263.7,41L263.7,41z"/>
</g>
</svg>
