<?xml version="1.0" encoding="utf-8"?>
<!-- Generator: Adobe Illustrator 24.0.1, SVG Export Plug-In . SVG Version: 6.00 Build 0)  -->
<svg version="1.1" id="Layer_1" xmlns="http://www.w3.org/2000/svg" xmlns:xlink="http://www.w3.org/1999/xlink" x="0px" y="0px"
	 viewBox="0 0 500 500" style="enable-background:new 0 0 500 500;" xml:space="preserve">
<style type="text/css">
	.st0{fill:#FFFFFF;}
	.st1{fill:#FFA5B6;}
	.st2{fill:#FFCEE5;}
</style>
<title>type</title>
<g id="Layer_3">
	<path class="st0" d="M132,106.3c-80.5,65.8-91.5,196.8-13.1,268.8c51.5,47.3,127.2,60.7,195.2,48.2c99.8-18.3,132.6-79.9,132.6-111
		s-22.9-48.8-22.9-48.8c28.6-57.5-1.1-137.1-52.7-172.6C298.5,40.9,197.5,52.8,132,106.3z"/>
	<path class="st1" d="M265.5,59.1c37.1,0,74.1,10.1,105.7,31.8c51.6,35.5,81.3,115.1,52.7,172.6c0,0,22.9,17.8,22.9,48.8
		s-32.9,92.6-132.6,111c-15.9,2.9-32.1,4.4-48.3,4.4c-53.6,0-107.4-16.4-146.9-52.6c-78.4-72-67.5-203,13.1-268.8
		C169,76.1,217.3,59.2,265.5,59.1 M265.5,50c-50.2,0-101,17.9-139.3,49.3C83.5,134.2,58.1,187,56.4,244.1
		c-1.5,53.3,19,103.6,56.3,137.8c38.7,35.5,93,55,153.1,55c16.7,0,33.5-1.5,49.9-4.6c57.7-10.6,90.9-34.9,108.7-53.4
		c19.7-20.5,31.4-45.4,31.4-66.6c0-25.3-13.2-42.9-21-51c11.8-28.1,12.4-61.6,1.4-95.3c-11.1-34-33-64.2-60-82.8
		C344.5,61.5,306.2,50,265.5,50L265.5,50z"/>
	<path class="st1" d="M230.4,207.1c-9.6,0-17.2,9.7-17.2,22.2s7.6,22.2,17.2,22.2s17.2-9.7,17.2-22.2S240,207.1,230.4,207.1z"/>
	<path class="st1" d="M230.4,256.1c-12.2,0-21.8-11.8-21.8-26.8s9.6-26.8,21.8-26.8s21.8,11.8,21.8,26.8S242.6,256.1,230.4,256.1z
		 M230.4,211.7c-7.1,0-12.6,7.7-12.6,17.6s5.6,17.6,12.6,17.6s12.6-7.7,12.6-17.6S237.5,211.7,230.4,211.7L230.4,211.7z"/>
	<path class="st1" d="M372.5,207.1c-9.6,0-17.2,9.7-17.2,22.2s7.6,22.2,17.2,22.2s17.2-9.7,17.2-22.2S382.2,207.1,372.5,207.1z"/>
	<path class="st1" d="M372.5,256.1c-12.2,0-21.8-11.8-21.8-26.8s9.6-26.8,21.8-26.8s21.8,11.8,21.8,26.8S384.7,256.1,372.5,256.1z
		 M372.5,211.7c-7.1,0-12.6,7.7-12.6,17.6s5.6,17.6,12.6,17.6s12.6-7.7,12.6-17.6S379.6,211.7,372.5,211.7L372.5,211.7z"/>
	<path class="st1" d="M220.1,214c-2.5,0-4.6-2-4.6-4.6c0-1,0.3-2,1-2.8c5.5-6.2,13.4-9.8,21.7-9.8c10,0,18.5,8,18.9,8.3
		c1.8,1.7,1.9,4.6,0.1,6.5s-4.6,1.9-6.5,0.1c-1.7-1.6-7.3-5.8-12.5-5.8c-5.5-0.1-10.8,2.2-14.6,6.3C222.7,213.4,221.4,214,220.1,214
		z"/>
	<path class="st1" d="M364.3,185c-2.5,0-4.6-2.1-4.6-4.6c0-1,0.3-1.9,0.9-2.7c0.5-0.7,5.3-6.8,17.7-10.6c5.9-1.7,12.1-2.4,18.2-2.2
		c2.5,0.1,4.5,2.3,4.3,4.8c-0.2,2.5-2.3,4.4-4.8,4.3c-5.1-0.2-10.1,0.4-15,1.8c-9.5,3-13.1,7.4-13.1,7.4
		C367.1,184.4,365.7,185,364.3,185z"/>
	<path class="st1" d="M362.2,214c-2.5,0-4.6-2-4.6-4.6c0-1,0.3-2,1-2.8c5.5-6.3,13.4-9.8,21.8-9.8c10,0,18.5,8,18.8,8.3
		c1.8,1.7,1.9,4.6,0.1,6.5s-4.6,1.9-6.5,0.1c-1.7-1.6-7.3-5.8-12.5-5.8c-5.5-0.1-10.8,2.2-14.6,6.3C364.9,213.4,363.6,214,362.2,214
		z"/>
	<ellipse class="st0" cx="234.1" cy="222.3" rx="5.1" ry="6.4"/>
	<ellipse class="st0" cx="376.1" cy="222.3" rx="5.1" ry="6.4"/>
	<path class="st1" d="M254.6,186.9c-1.4,0-2.8-0.7-3.6-1.8c-0.1-0.2-3.8-4.5-13.1-7.4c-4.9-1.4-9.9-2-15-1.8
		c-2.5,0.1-4.6-1.8-4.8-4.3c-0.1-2.5,1.8-4.7,4.3-4.8c6.2-0.2,12.3,0.5,18.2,2.2c12.4,3.9,17.2,10,17.7,10.6c1.5,2,1.1,4.9-0.9,6.4
		C256.6,186.6,255.7,186.9,254.6,186.9L254.6,186.9z"/>
	<path class="st1" d="M282,431.3c-73.5-3-125.3-44.6-146.3-123.6c0,0-31.3-19.1-33.6-54.3c-2.4-37.1,25.7-30.3,33.4-13
		c1,2.1,5,0.4,5-1.9c-0.3-70.8,26.4-146.8,101.1-147.8c17.5-0.2,36.3,7.1,51.4,15.4c0.8,0.4,9.5,5.9,15.4,9.9
		c3.3,2.2,7.7,1.9,10.7-0.7c12.2-10.5,47.4-33.5,80-5.2c0,0-45.8-59.6-153.4-52.1S91,136.5,73.8,178.3s-17.2,136.1,31.4,188.4
		C156.7,422.1,214.1,435.7,282,431.3z"/>
	<path class="st2" d="M325,288.2c10.4-0.5,22.5-26.6,19.3-32.4s-36.5-7.6-43.2-0.4C290.9,266.4,316.7,288.8,325,288.2z"/>
	<path class="st1" d="M324.7,292.8c-8.3,0-23.1-11.8-28.4-22.7c-4.5-9.3-1-15.1,1.4-17.7c6.5-6.9,25.2-6.6,34.2-5.5
		c13.5,1.6,15.7,5.5,16.4,6.8c3.8,6.8-3.4,20.5-4.8,23.2c-3.2,5.8-9.8,15.5-18.1,16C325.1,292.8,324.9,292.8,324.7,292.8z
		 M324.6,283.6l0.4,4.6l-0.2-4.6c1.4-0.1,4.3-1.8,7.7-6.6c5.3-7.3,8.1-16.2,7.8-18.9c-5.9-4.4-32.3-3.3-35.8,0.4
		c-0.6,0.6-2.2,2.4,0,7.2C308.8,275.3,321.6,283.6,324.6,283.6z"/>
	<path class="st1" d="M286.4,379.5c-18.5,0-33.5-9-34.3-9.5c-2.2-1.3-2.8-4.1-1.5-6.3s4.1-2.8,6.3-1.5c0.2,0.1,18.4,10.9,37.5,7.4
		s25.9-16.5,26.2-17.1l5.2-10.2l3.3,11c0.1,0.4,3.5,10.6,17.9,12c4.9,0.5,8.5-0.4,10.9-2.6c2-1.6,4.8-1.3,6.4,0.7
		c1.5,1.8,1.4,4.4-0.3,6.1c-4.4,4.1-10.4,5.8-18,5c-11.6-1.1-18.2-6.6-21.9-11.3c-4.8,5.5-13.6,12.9-28.2,15.5
		C292.8,379.2,289.6,379.5,286.4,379.5z"/>
	<path class="st1" d="M324.6,359.1c-0.6,0-1.1-0.1-1.6-0.3c-2.4-0.9-3.5-3.5-2.6-5.9c0,0,0,0,0,0c3.4-10,5.2-20.4,5.4-31
		c0.3-12.8-3.7-29.7-3.8-29.9c-0.6-2.5,0.9-4.9,3.4-5.5s4.9,0.9,5.5,3.4c0.2,0.7,4.3,18.2,4,32.2c-0.2,11.6-2.2,23.1-6,34
		C328.3,358,326.5,359.2,324.6,359.1z"/>
	<path class="st1" d="M282,435.9h-0.1c-112.8-2.9-150.1-91.6-150.9-123.6c0-1.4-0.7-2.7-1.7-3.5c-8.8-6.7-29.6-25.5-31.7-55
		c-1.6-21.9,8.9-27.6,13.5-29.1c8-2.5,17.6,0.9,24.3,8C131,167.1,165.7,95.1,241,86.2c18-2.1,36.7,6.4,54.1,15.9
		c1.1,0.6,10.1,6.3,15.8,10.1c1.6,1.1,3.7,0.9,5.2-0.3c7.7-6.6,48.1-38.1,86-5.2c1.9,1.7,2,4.6,0.4,6.5c-1.6,1.8-4.5,2-6.4,0.5
		c-31.4-27.2-64.6-2.9-74,5.2c-4.6,3.9-11.2,4.3-16.2,1c-6-4-14.3-9.2-15.1-9.7c-16.1-8.8-33.2-16.7-48.7-14.8
		c-55,6.5-106,57.6-97.1,142.8c0.2,3.4-1.9,6.5-5.2,7.5c-3,1.2-6.5,0-8.2-2.7c-4.1-6.9-12.1-11.1-17.8-9.4
		c-5.3,1.7-7.9,8.8-7.1,19.7c1.9,25.8,20.2,42.4,28.1,48.4c3.3,2.5,5.3,6.4,5.4,10.6c0.8,29.7,35.9,112,142,114.7
		c2.5,0.1,4.5,2.3,4.3,4.8C286.2,433.9,284.3,435.8,282,435.9L282,435.9z"/>
</g>
</svg>
