<?xml version="1.0" encoding="utf-8"?>
<!-- Generator: Adobe Illustrator 24.0.1, SVG Export Plug-In . SVG Version: 6.00 Build 0)  -->
<svg version="1.1" id="Layer_1" xmlns="http://www.w3.org/2000/svg" xmlns:xlink="http://www.w3.org/1999/xlink" x="0px" y="0px"
	 viewBox="0 0 500 500" style="enable-background:new 0 0 500 500;" xml:space="preserve">
<style type="text/css">
	.st0{fill:#FFCEE5;}
	.st1{fill:#FFFFFF;}
	.st2{fill:#FFA5B6;}
</style>
<title>type</title>
<g id="Layer_3">
	<path class="st0" d="M64,279.7l107.5,24l259-46.3c9.4-1,22.6-76.7-14.1-137.6c-22-36.6-74.8-75.9-132.5-73.7
		C81.3,53.6,66.3,215.9,66.3,215.9s-30,6.7-33.4,21.5s20.9,13.8,20.9,13.8s-23,13.1-17.7,24.5S64,279.7,64,279.7z"/>
	<path class="st1" d="M435.4,239.3c-26.8-18.4-58.1-26.3-98.7-24.5s-96.2,41.3-135.1,60.2s-133.1,2.8-133.1,2.8
		S96.3,449,321.4,416.7C503.1,368.3,442,264.3,434.3,257.3L435.4,239.3z"/>
	<path class="st0" d="M281.5,291.2c0,0,29-38.5,50.8-39.5c28.9-1.4,57.5,39.2,57.5,39.2L281.5,291.2z"/>
	<path class="st2" d="M281.5,295.8c-2.5,0-4.6-2.1-4.6-4.6c0-1,0.3-2,0.9-2.7c3.1-4.1,31-40.2,54.2-41.3
		c30.8-1.6,60.2,39.4,61.5,41.1c1.5,2.1,1,4.9-1.1,6.4c-0.8,0.5-1.7,0.8-2.6,0.8L281.5,295.8L281.5,295.8z M333.7,256.3
		c-0.4,0-0.8,0-1.2,0c-13,0.6-30.9,18.2-41.4,30.3l89.2-0.2C371.2,275.6,352.2,256.3,333.7,256.3z"/>
	<path class="st0" d="M331.3,321.8c25.1,2.3,58.5-30.8,58.5-30.8l-108.3,0.3C281.5,291.2,310,319.8,331.3,321.8z"/>
	<path class="st2" d="M333.8,326.5c-1,0-2,0-2.9-0.1c-22.7-2.1-51.4-30.6-52.6-31.9c-1.8-1.8-1.8-4.7,0-6.5c0.9-0.9,2-1.3,3.2-1.3
		l108.3-0.3l0,0c2.5,0,4.6,2,4.6,4.6c0,1.2-0.5,2.4-1.4,3.3C391.7,295.6,360.2,326.5,333.8,326.5z M293.3,295.8
		c9.7,8.2,25.7,20.3,38.4,21.4l0,0c14.5,1.3,33.9-11.6,46.1-21.7L293.3,295.8z"/>
	<path class="st2" d="M113.5,289.2c-21.7,0-39.7-1.5-45.4-3.7c-2.4-0.7-3.8-3.2-3.1-5.7c0.7-2.4,3.2-3.8,5.7-3.1
		c0.2,0.1,0.5,0.2,0.7,0.3c10.2,3.9,88.6,5.8,124.5-6.3c34.1-11.5,56.4-25.3,76-37.5c19.9-12.3,35.5-22.1,55.9-24.3
		c36.6-4,77.8,5.9,110.1,26.6c2.1,1.4,2.7,4.2,1.4,6.3s-4.2,2.7-6.3,1.4c-30.6-19.6-69.5-29-104.1-25.2c-18.3,2-33.2,11.3-52.1,23
		c-19,11.8-42.8,26.6-77.9,38.4C177.4,286.5,142.2,289.2,113.5,289.2z"/>
	<path class="st2" d="M268.9,50.1c37.1,0,74.1,10.1,105.7,31.8c51.6,35.5,81.3,115.1,52.7,172.6c0,0,22.9,17.8,22.9,48.8
		s-32.8,92.6-132.6,111c-15.9,2.9-32.1,4.4-48.3,4.4c-53.6,0-107.4-16.4-146.9-52.6c-26-23.9-42.2-54.3-49.3-86.6
		c-0.4-2-2.6-2.7-5.6-2.7c-4.6,0-11.3,1.5-17,1.5c-4.2,0-7.8-0.8-9.5-3.7c-5.9-9.8,28.6-26.4,24.8-27.9c-12-4.6-28.7,1.9-29.1-7.9
		c-0.4-7.6,33.5-20.7,34.7-28.2c6.9-43.4,28.9-84.6,64.1-113.4C172.4,67.1,220.7,50.2,268.9,50.1 M268.9,41
		c-50.2,0-101,17.9-139.3,49.3c-35.4,29-59.2,70.7-67.1,117.6c-2.2,2.1-8.9,6.1-13,8.6C37,224,27.1,230,27.5,239.4
		c0.5,10.4,8.4,13.4,15.5,14.2c-8.6,7.2-15.6,16.1-9.8,25.7c3.2,5.4,9.1,8.1,17.4,8.1c3.5-0.1,7-0.4,10.4-0.9c1.5-0.2,3-0.4,4.2-0.5
		c8,33.3,25.7,63.5,50.9,86.7c38.7,35.5,93,55,153.1,55c16.7,0,33.5-1.5,49.9-4.6c57.7-10.6,90.9-34.9,108.7-53.4
		c19.7-20.5,31.4-45.4,31.4-66.6c0-25.3-13.2-42.9-21-51c11.8-28.1,12.4-61.6,1.4-95.3c-11.1-34-33-64.2-60-82.8
		C348,52.5,309.7,41,268.9,41L268.9,41z"/>
	<path class="st2" d="M233.8,198.1c-9.7,0-17.2,9.7-17.2,22.2s7.6,22.2,17.2,22.2s17.2-9.7,17.2-22.2S243.5,198.1,233.8,198.1z"/>
	<path class="st2" d="M233.8,247.1c-12.2,0-21.8-11.8-21.8-26.8s9.6-26.8,21.8-26.8s21.8,11.8,21.8,26.8S246.1,247.1,233.8,247.1z
		 M233.8,202.7c-7.1,0-12.6,7.7-12.6,17.6s5.5,17.6,12.6,17.6s12.6-7.7,12.6-17.6S240.9,202.7,233.8,202.7L233.8,202.7z"/>
	<path class="st2" d="M376,198.1c-9.6,0-17.2,9.7-17.2,22.2s7.6,22.2,17.2,22.2s17.2-9.7,17.2-22.2S385.6,198.1,376,198.1z"/>
	<path class="st2" d="M376,247.1c-12.2,0-21.8-11.8-21.8-26.8s9.6-26.8,21.8-26.8s21.8,11.8,21.8,26.8S388.2,247.1,376,247.1z
		 M376,202.7c-7.1,0-12.6,7.7-12.6,17.6s5.6,17.6,12.6,17.6s12.6-7.7,12.6-17.6S383.1,202.7,376,202.7L376,202.7z"/>
	<path class="st2" d="M207.5,155.1c-2.5,0-4.6-2-4.6-4.6c0-1,0.3-2,1-2.8c5.5-6.2,13.4-9.8,21.8-9.7c10,0,18.5,8,18.9,8.3
		c1.9,1.7,2.1,4.6,0.4,6.5s-4.6,2.1-6.5,0.4c-0.1-0.1-0.2-0.2-0.3-0.3c-1.7-1.6-7.3-5.8-12.5-5.8c-5.5-0.1-10.8,2.2-14.6,6.3
		C210.2,154.5,208.9,155.1,207.5,155.1z"/>
	<path class="st2" d="M223.5,205c-2.5,0-4.6-2-4.6-4.5c0-1,0.3-2,1-2.8c5.5-6.2,13.4-9.8,21.8-9.8c10,0,18.5,8,18.9,8.3
		c1.8,1.7,1.9,4.6,0.1,6.5s-4.6,1.9-6.5,0.1c-1.7-1.6-7.3-5.8-12.5-5.8c-5.5-0.1-10.8,2.2-14.6,6.3C226.2,204.4,224.9,205,223.5,205
		z"/>
	<path class="st2" d="M366.6,155.1c-2.5,0-4.6-2-4.6-4.6c0-1,0.3-2,1-2.8c5.5-6.2,13.4-9.8,21.8-9.7c10,0,18.5,8,18.8,8.3
		c1.8,1.7,1.9,4.6,0.1,6.5c-1.7,1.8-4.6,1.9-6.5,0.1l0,0c-1.7-1.6-7.3-5.8-12.5-5.8c-5.5-0.1-10.8,2.2-14.6,6.3
		C369.3,154.5,368,155.1,366.6,155.1z"/>
	<path class="st2" d="M365.7,205c-2.5,0-4.6-2-4.6-4.6c0-1,0.3-2,1-2.8c5.5-6.2,13.4-9.8,21.7-9.8c10,0,18.5,8,18.8,8.3
		c1.8,1.8,1.8,4.7,0,6.5c-1.7,1.7-4.5,1.8-6.3,0.1c-1.7-1.6-7.3-5.8-12.5-5.8c-5.5-0.1-10.8,2.2-14.6,6.3
		C368.4,204.4,367,205,365.7,205z"/>
	<ellipse class="st1" cx="237.5" cy="213.3" rx="5.1" ry="6.4"/>
	<ellipse class="st1" cx="379.6" cy="213.3" rx="5.1" ry="6.4"/>
</g>
</svg>
