<?xml version="1.0" encoding="utf-8"?>
<!-- Generator: Adobe Illustrator 24.0.1, SVG Export Plug-In . SVG Version: 6.00 Build 0)  -->
<svg version="1.1" id="Layer_1" xmlns="http://www.w3.org/2000/svg" xmlns:xlink="http://www.w3.org/1999/xlink" x="0px" y="0px"
	 viewBox="0 0 700 700" style="enable-background:new 0 0 700 700;" xml:space="preserve">
<style type="text/css">
	.st0{fill:#FFFFFF;}
	.st1{fill:#FFA5B6;}
	.st2{fill:#FFCEE5;}
</style>
<title>type</title>
<g id="Layer_3">
	<path class="st0" d="M480.2,161.7c-0.3-3.5,11.1-13.4,13.5-15.8c5.6-5.6,11.7-11,18.8-14.8c24.7-13.3,48.5,9,64.1,25.5
		c55,58.3,72.1,139.1,69.6,215.5c-0.9,27.6-1.9,60-14.6,85.1c-9.9,19.5-26.3,27.6-48.8,23.3c-24.4-4.6-48.5-11.3-72.7-16.6
		C510,463.9,480.2,161.8,480.2,161.7z"/>
	<path class="st1" d="M593.9,486.3c-4.1,0-8.1-0.4-12.1-1.2c-14.9-2.8-29.8-6.4-44.3-9.9c-9.5-2.3-19-4.6-28.6-6.7
		c-2-0.4-3.5-2.1-3.7-4.1c-0.3-3-29.7-300.7-29.8-302.2l0,0c-0.4-4.4,3.8-9.2,12.9-17.8c0.8-0.8,1.5-1.4,1.9-1.9
		c7.1-7.1,13.4-12.1,19.9-15.6c29.7-16,57.7,13.7,69.7,26.4c62.4,66.1,73,155.5,70.8,218.9v0.8c-1,28.3-2.1,60.5-15.1,86.3
		C626.7,477.1,612.4,486.3,593.9,486.3z M514.4,460c8.5,1.9,17,3.9,25.4,6c14.3,3.5,29.2,7,43.8,9.8c20.4,3.9,34.6-2.9,43.7-20.8
		c12.1-24,13.2-55,14.1-82.4v-0.8c2.1-61.6-8.1-148.3-68.2-212c-17.3-18.4-37.8-35.7-58.4-24.6c-5.7,3.1-11.3,7.5-17.7,13.9
		c-0.5,0.5-1.2,1.2-2.2,2.1c-5.7,5.4-9.1,9-9.9,10.6C485.5,167.4,489.2,204.3,514.4,460z M484.9,161.3c0,0.1,0,0.1,0,0.2
		C484.9,161.4,484.9,161.3,484.9,161.3z"/>
	<path class="st0" d="M246.9,193.8c-83.3,68.1-94.6,203.5-13.5,277.9c53.2,48.9,131.5,62.8,201.8,49.9
		c103.2-18.9,137.1-82.6,137.1-114.8s-23.6-50.5-23.6-50.5c29.6-59.5-1.1-141.7-54.5-178.5C419.1,126.2,314.7,138.4,246.9,193.8z"/>
	<path class="st1" d="M384.9,145c38.3,0,76.6,10.3,109.3,32.9c53.4,36.7,84.1,119,54.5,178.5c0,0,23.6,18.4,23.6,50.5
		s-34,95.8-137.1,114.8c-16.5,3-33.2,4.6-49.9,4.6c-55.4,0-111-16.9-151.9-54.4c-81.1-74.4-69.8-209.9,13.5-277.9
		C285.2,162.6,335.1,145,384.9,145 M384.9,135.6c-51.9,0-104.4,18.6-144,50.9c-44.1,36.1-70.4,90.7-72.1,149.7
		c-1.6,55.1,19.6,107.1,58.2,142.5c40,36.7,96.2,56.9,158.3,56.9c17.3,0,34.6-1.6,51.6-4.7c59.6-10.9,94-36,112.4-55.2
		c20.4-21.2,32.5-47,32.5-68.8c0-26.1-13.7-44.3-21.7-52.7c12.3-29,12.8-63.7,1.4-98.5c-11.5-35.2-34.1-66.3-62-85.5
		C466.7,147.5,427,135.5,384.9,135.6L384.9,135.6z"/>
	<path class="st0" d="M253.9,323c0,0-14,130.1-60.2,180.7S28,517.7,21.6,442.4C8.2,287.2,157.1,119.8,189.4,116.5
		c32.2-3.3,81.7,77.4,85,97.9"/>
	<path class="st1" d="M133.2,531.9c-14.5-0.1-28.8-2.6-42.5-7.3c-33.3-11.4-70.1-38.7-73.8-81.8c-7.7-90.3,39-178.4,67.5-222.9
		c40.1-62.4,86.4-106.3,104.5-108.1c20.1-2,42.4,21.7,57.6,41.9c16.3,21.7,30.6,48,32.5,59.9c0.6,2.5-1,5.1-3.5,5.7
		c-2.5,0.6-5.1-1-5.7-3.5c-0.1-0.2-0.1-0.5-0.1-0.7c-3.3-20.9-52.5-96.8-79.8-93.9C163,123.9,12.8,284.7,26.3,442
		c3.3,38.5,37,63.3,67.5,73.6c38.3,13,76.1,7.1,96.4-15.1c44.7-48.8,58.9-176.7,59-178c0.3-2.6,2.6-4.5,5.2-4.2
		c2.6,0.3,4.5,2.6,4.2,5.2l0,0C258,329,243.9,455.9,197.1,507C182.2,523.3,159.1,531.9,133.2,531.9z"/>
	<path class="st2" d="M406.9,419c-0.9-3.3-4.2-5.4-7.7-4.8c-13.3,2.3-43.8,8.6-47.7,17.3c-5.7,12.8,27.5,47.8,67.1,47.7
		c5.6,0,9.7-4.9,7.1-9.9C419.8,458.1,410.9,433.3,406.9,419z"/>
	<path class="st1" d="M418.3,483.8c-28.8,0-56-18.1-67.2-35.2c-4.9-7.5-6.2-14.1-4-19.2c3.6-8,20.8-14.7,51.2-20
		c5.8-1,11.4,2.5,13,8.2l0,0c3.9,14,12.8,38.5,18.4,49.3c1.9,3.4,1.8,7.5-0.2,10.9c-2.4,3.8-6.6,6-11.1,5.9L418.3,483.8z
		 M400.4,418.8h-0.4c-32.4,5.7-43.1,12-44.2,14.6c-0.6,1.4-0.2,4.9,3.3,10.2c9.7,15,33.8,30.8,59.2,30.8c1.2,0.1,2.5-0.4,3.3-1.4
		c0.3-0.5,0.3-1.1-0.1-1.6c-6-11.5-15.1-36.5-19.2-51.2l0,0C402.1,419.4,401.3,418.8,400.4,418.8z"/>
	<path class="st1" d="M348.6,293.3c-10,0-17.8,10.1-17.8,22.9s7.8,22.9,17.8,22.9c10,0,17.8-10.1,17.8-22.9S358.6,293.3,348.6,293.3
		z"/>
	<path class="st1" d="M348.6,344c-12.6,0-22.5-12.1-22.5-27.7s9.9-27.7,22.5-27.7c12.6,0,22.5,12.1,22.5,27.6
		C371.1,331.8,361.3,344,348.6,344z M348.6,298.1c-7.3,0-13.1,8-13.1,18.2s5.7,18.2,13.1,18.2c7.3,0,13.1-8,13.1-18.2
		S356,298.1,348.6,298.1L348.6,298.1z"/>
	<path class="st1" d="M495.6,293.3c-10,0-17.8,10.1-17.8,22.9s7.8,22.9,17.8,22.9c10,0,17.8-10.1,17.8-22.9S505.5,293.3,495.6,293.3
		z"/>
	<path class="st1" d="M495.6,344c-12.6,0-22.5-12.1-22.5-27.7s9.9-27.7,22.5-27.7s22.5,12.2,22.5,27.7S508.2,344,495.6,344z
		 M495.6,298.1c-7.3,0-13.1,8-13.1,18.2s5.7,18.2,13.1,18.2s13-8,13-18.2C508.6,306.1,502.9,298.1,495.6,298.1L495.6,298.1z"/>
	<path class="st1" d="M321.4,248.8c-2.6,0-4.7-2.1-4.7-4.7c0-1.1,0.4-2.1,1-2.9c5.7-6.5,13.9-10.1,22.5-10.1
		c10.3,0,19.1,8.3,19.5,8.6c1.9,1.8,2,4.8,0.1,6.7c-1.8,1.9-4.8,2-6.7,0.1c-1.7-1.7-7.5-6-12.9-6c-5.7-0.1-11.2,2.3-15.1,6.5
		C324.2,248.2,322.9,248.8,321.4,248.8z"/>
	<path class="st1" d="M338,300.5c-2.6,0-4.7-2.1-4.7-4.7c0-1,0.4-2.1,1-2.9c5.7-6.5,13.9-10.1,22.5-10.1c10.3,0,19.1,8.3,19.5,8.6
		c1.8,1.9,1.8,4.9-0.1,6.7c-1.8,1.7-4.6,1.8-6.4,0.1c-1.7-1.7-7.5-6-12.9-6c-5.7-0.1-11.2,2.3-15.1,6.5
		C340.8,299.8,339.4,300.5,338,300.5z"/>
	<path class="st1" d="M485.9,248.8c-2.6,0-4.7-2.1-4.7-4.7c0-1.1,0.4-2.1,1-2.9c5.7-6.5,13.9-10.1,22.5-10.1
		c10.3,0,19.1,8.3,19.5,8.6c1.9,1.8,2,4.8,0.1,6.7c-1.8,1.9-4.8,2-6.7,0.1c-1.8-1.7-7.5-6-13-6c-5.7-0.1-11.2,2.3-15.1,6.5
		C488.7,248.2,487.3,248.8,485.9,248.8z"/>
	<path class="st1" d="M484.9,300.5c-2.6,0-4.7-2.1-4.7-4.7c0-1.1,0.4-2.1,1-2.9c5.7-6.5,13.9-10.1,22.5-10.1
		c10.3,0,19.1,8.3,19.5,8.6c1.9,1.8,2,4.8,0.1,6.7c-1.8,1.9-4.8,2-6.7,0.1c-1.8-1.7-7.5-6-13-6c-5.7-0.1-11.2,2.3-15.1,6.5
		C487.7,299.8,486.4,300.5,484.9,300.5z"/>
	<ellipse class="st0" cx="352.5" cy="309" rx="5.2" ry="6.6"/>
	<ellipse class="st0" cx="499.3" cy="309" rx="5.2" ry="6.6"/>
	<path class="st0" d="M435.2,354.2c23.5-11.9,50.1-7.1,66.2,14.1c12.7,16.7,17.8,37.1,23.9,56.9c7.1,23,23.7,43.4,49.7,43.1
		c38.2-0.5,50.9-40.5,48.1-72.6c-1.6-18.3-8.8-45.9-27.8-54.1c-1.4-0.6,3.5-7.1,4-7.8c3.1-4.1,7.1-7.2,12.3-8.2
		c9.4-1.7,18.2,4.6,22.9,12.3c-1-1.6,3.3-7.9,4.1-9c3-4.2,7.2-7.7,12.6-8.3c6.4-0.6,12.3,3.3,16,8.3c0.6,0.9-2.5,5.6-2.9,6.5
		c-10.1,21.2-1.7,45.3,0.4,67.3c3.6,38.9,1.5,81.1-26.1,111.4c-48.1,52.7-139.3,52.5-188.3,1c-25.5-26.9-42.9-63.9-47.9-100.7"/>
	<path class="st1" d="M544.5,558.5c-37.8,0-73.3-14.6-97.5-40.1c-26-27.3-43.9-65-49.2-103.3c-0.4-2.6,1.3-5,3.9-5.5
		c2.6-0.4,5,1.3,5.5,3.9c0,0.1,0,0.2,0,0.3c5,36.4,22,72.1,46.6,98.1c22.8,24,56.5,37.5,92.2,37.1c35-0.4,67.5-14.2,89.2-38.1
		c27.9-30.7,28-73.7,24.8-107.8c-0.5-5.4-1.4-10.9-2.3-16.6c-2.9-17.7-5.8-36,2.4-53.2c0.1-0.2,0.4-0.8,0.8-1.4
		c0.2-0.4,0.7-1.2,1.1-2c-2.5-2.7-6.3-5.1-10.3-4.6c-4.1,0.4-7.3,3.6-9.2,6.3c-1.3,1.8-2.4,3.7-3.3,5.7c0.4,2.6-1.5,5-4,5.3
		c-1.9,0.3-3.7-0.6-4.7-2.2l0,0c-3.7-6-10.6-11.5-18-10.1c-3.5,0.6-6.6,2.7-9.3,6.4c-0.8,1-1.4,2-1.9,2.7c16.9,10.2,24.8,35,26.6,56
		c2.1,24.7-4.3,47.9-17.2,62.1c-9.2,10.2-21.2,15.5-35.6,15.7c-24.9,0.4-45.2-17-54.3-46.4c-0.7-2.4-1.5-4.8-2.2-7.2
		c-5.1-16.8-10.3-34.1-21-48.1c-14.5-19-38.1-24-60.3-12.7c-2.4,1.1-5.2,0.1-6.3-2.3c-1.1-2.3-0.2-4.9,2-6.1c26-13.2,55-7,72.1,15.4
		c11.7,15.4,17.2,33.5,22.5,51.1c0.7,2.4,1.5,4.8,2.2,7.2c2.9,9.4,14.7,39.8,44.5,39.8h0.6c11.7-0.2,21.3-4.4,28.7-12.6
		c13.1-14.5,16.2-37.9,14.8-54.9c-1.6-18.9-9.1-43.3-24.9-50.2c-1.4-0.7-2.5-1.9-2.9-3.4c-0.6-2.3,0-4.8,5-11.5
		c4.2-5.7,9.3-9,15.2-10.1c8.6-1.5,16.5,2.2,22.3,7.7c0.5-0.8,1-1.6,1.7-2.6c4.3-6.1,9.9-9.6,16-10.2c7.4-0.7,15.1,3.2,20.2,10.2
		c2.3,3.2,0.2,6.8-2.1,10.6l-0.5,0.8c-6.9,14.5-4.2,31.3-1.6,47.6c0.9,5.7,1.9,11.6,2.4,17.3c3,33.2,3.5,81.2-27.3,115
		c-23.4,25.8-58.5,40.7-96.2,41.1L544.5,558.5z M638.6,335.4L638.6,335.4L638.6,335.4z"/>
	<path class="st0" d="M452.4,375.2c4.7-14.2,31.3-20.2,41.5-13.8"/>
	<path class="st1" d="M452.4,379.9c-0.5,0-1-0.1-1.5-0.2c-2.5-0.8-3.8-3.5-3-6c0,0,0,0,0,0c2.4-7.2,9.2-13.3,19.1-16.8
		c9.1-3.2,21.7-4.4,29.4,0.5c2.2,1.4,2.9,4.3,1.5,6.5c-1.4,2.2-4.3,2.9-6.5,1.5c-4.1-2.6-13.2-2.4-21.1,0.4
		c-7,2.5-11.9,6.5-13.3,10.8C456.3,378.6,454.5,379.9,452.4,379.9z"/>
	<path class="st0" d="M461,394.3c3.5-14.5,29.5-22.8,40.1-17.3"/>
	<path class="st1" d="M461,399c-0.4,0-0.7,0-1.1-0.1c-2.5-0.6-4.1-3.1-3.5-5.7c0,0,0,0,0,0c1.8-7.5,8-14,17.6-18.4
		c8.8-4,21.2-6.2,29.3-2c2.3,1.3,3,4.2,1.7,6.5c-1.2,2.1-3.9,3-6.1,1.9c-4.3-2.2-13.3-1.3-21,2.2c-6.7,3.1-11.3,7.5-12.3,12
		C465.1,397.5,463.2,399,461,399z"/>
</g>
</svg>
