<?xml version="1.0" encoding="utf-8"?>
<!-- Generator: Adobe Illustrator 24.0.1, SVG Export Plug-In . SVG Version: 6.00 Build 0)  -->
<svg version="1.1" id="Layer_1" xmlns="http://www.w3.org/2000/svg" xmlns:xlink="http://www.w3.org/1999/xlink" x="0px" y="0px"
	 viewBox="0 0 500 500" style="enable-background:new 0 0 500 500;" xml:space="preserve">
<style type="text/css">
	.st0{fill:#FFFFFF;}
	.st1{fill:#FFA5B6;}
	.st2{fill:none;stroke:#FFA5B6;stroke-width:40;stroke-linecap:round;stroke-linejoin:round;}
</style>
<title>type</title>
<g>
	<path class="st0" d="M121.8,116.3c-80.5,65.8-91.5,196.8-13.1,268.8c51.5,47.3,127.1,60.7,195.1,48.2
		c99.8-18.3,132.6-79.9,132.6-111s-22.9-48.8-22.9-48.8c28.6-57.5-1.1-137.1-52.7-172.6C288.4,50.9,187.4,62.8,121.8,116.3z"/>
	<path class="st1" d="M255.3,69.1c37.1,0,74.1,10.1,105.7,31.8c51.6,35.5,81.3,115.1,52.7,172.6c0,0,22.9,17.8,22.9,48.8
		s-32.8,92.6-132.6,111c-15.9,2.9-32.1,4.4-48.3,4.4c-53.6,0-107.4-16.4-146.9-52.6c-78.4-72-67.5-203,13.1-268.8
		C158.8,86.1,207.2,69.1,255.3,69.1 M255.3,60c-50.2,0-101,17.9-139.3,49.3C73.3,144.2,47.9,197,46.2,254.1
		c-1.5,53.3,19,103.6,56.3,137.8c38.7,35.5,93,55,153.1,55c16.7,0,33.5-1.5,49.9-4.6c57.7-10.6,90.9-34.9,108.7-53.4
		c19.7-20.5,31.4-45.4,31.4-66.6c0-25.3-13.2-42.9-21-51c11.8-28.1,12.4-61.6,1.4-95.3c-11.1-34-33-64.2-59.9-82.8
		C334.4,71.5,296.1,60,255.3,60L255.3,60z"/>
	<path class="st0" d="M341.5,91.1c10.6-15.5,47.3-47.4,78.9-15.8c24.5,24.5,2.7,62.5-9.8,75.9c0,0,6.5,13.2,8.3,18.4"/>
	<path class="st1" d="M418.9,174.1c-2,0-3.7-1.2-4.3-3.1c-1.7-4.9-8-17.8-8.1-17.9c-0.8-1.7-0.5-3.8,0.8-5.1
		c12.5-13.4,31.4-48,9.9-69.5c-8.9-8.9-19-13-29.8-12c-18.4,1.7-35.2,17.2-42.1,27.1c-1.4,2.1-4.3,2.6-6.4,1.2s-2.6-4.3-1.2-6.4
		c6.7-9.8,25.6-28.9,48.8-31.1c13.7-1.3,26.2,3.6,37.1,14.6c25,25,6.7,62.9-7.6,79.8c2,4.2,5.8,12.2,7.2,16.2c0.8,2.4-0.5,5-2.8,5.8
		C419.9,174,419.4,174.1,418.9,174.1z"/>
	<path class="st0" d="M213.6,93.7c0,0-27.9-67.1-75.8-56.3C61.5,54.5,93.2,154.8,93.2,154.8"/>
	<path class="st1" d="M93.2,159.4c-2,0-3.8-1.3-4.4-3.2c-0.7-2.3-17.2-55.7,4-92.5c9.2-15.9,23.9-26.3,44-30.8
		c51-11.4,79.8,56.1,81,59c1,2.3-0.1,5-2.5,6c-2.3,1-5-0.1-6-2.5c-0.3-0.6-27-63.4-70.6-53.6c-17.4,3.9-30.2,12.8-38,26.4
		c-19.2,33.3-3.4,84.7-3.2,85.2c0.8,2.4-0.6,5-3,5.7l0,0C94.1,159.3,93.7,159.4,93.2,159.4z"/>
</g>
<g>
	<path class="st2" d="M208.4,203.3c0,0-6.5-44.4,36-56.1c36.9-10.1,85.5,10.7,76.5,64.1c-7.8,46.1-51.5,38.6-56,51.2
		c-4.5,12.6-3.5,38.4-3.5,38.4"/>
	<circle class="st1" cx="261.2" cy="360" r="24.2"/>
</g>
</svg>
