<svg id="Layer_2" data-name="Layer 2" xmlns="http://www.w3.org/2000/svg" viewBox="0 0 700 700"><defs><style>.cls-1{fill:#ffcee5;}.cls-2{fill:#fff;}.cls-3{fill:#ffa5b6;}</style></defs><title>bird</title><rect class="cls-1" x="-14.08" y="-17.99" width="737.18" height="735.14"/><path class="cls-1" d="M228.3,346.11l75.31,16.8,181.46-32.44c6.61-.72,15.85-53.75-9.88-96.43-15.43-25.61-52.4-53.15-92.83-51.66-142,5.26-152.45,119-152.45,119s-21,4.72-23.37,15,14.65,9.68,14.65,9.68-16.14,9.19-12.42,17.13S228.3,346.11,228.3,346.11Z"/><path class="cls-2" d="M488.48,317.8c-18.81-12.88-40.7-18.43-69.14-17.16s-67.41,28.95-94.65,42.17-93.23,2-93.23,2S257,477,402.54,441.73c135.94-32.91,90.59-106.41,85.21-111.34Z"/><path class="cls-1" d="M380.71,354.17s20.31-26.94,35.57-27.66c20.21-.94,40.31,27.46,40.31,27.46Z"/><path class="cls-3" d="M380.71,357.37a3.21,3.21,0,0,1-2.56-5.13c2.17-2.88,21.69-28.17,38-28.92.37,0,.75,0,1.13,0,21.3,0,41.09,27.63,41.94,28.83a3.2,3.2,0,0,1-2.6,5.05l-75.88.2Zm36.57-27.67c-.28,0-.57,0-.85,0-9.14.42-21.67,12.75-29,21.23l62.53-.16C443.53,343.19,430.26,329.7,417.28,329.7Z"/><path class="cls-1" d="M415.6,375.56c17.59,1.61,41-21.59,41-21.59l-75.88.2S400.65,374.19,415.6,375.56Z"/><path class="cls-3" d="M417.35,378.84c-.69,0-1.36,0-2-.09h0c-15.93-1.46-36-21.47-36.87-22.32A3.2,3.2,0,0,1,380.7,351l75.88-.2h0a3.2,3.2,0,0,1,2.25,5.47C457.88,357.2,435.84,378.84,417.35,378.84Zm-1.46-6.47c10.76,1,24.45-8.72,32.25-15.17l-59.18.15c6.78,5.78,18,14.2,26.93,15Z"/><path class="cls-3" d="M263,352.72c-15.2,0-27.82-1.05-31.79-2.57a3.2,3.2,0,0,1,2.29-6c7.13,2.72,62,4.06,87.23-4.4,23.9-8,39.48-17.71,53.22-26.25,13.9-8.65,24.88-15.48,39.15-17,25.64-2.82,54.47,4.14,77.11,18.63a3.21,3.21,0,0,1-3.46,5.4C465.3,306.77,438,300.16,413.8,302.84c-12.82,1.41-23.25,7.9-36.47,16.12s-29.95,18.62-54.56,26.89C307.79,350.88,283.14,352.72,263,352.72Z"/><path class="cls-3" d="M371.89,185.26c26,0,51.88,7,74,22.28,36.17,24.89,57,80.62,36.91,120.93,0,0,16,12.44,16,34.21s-23,64.91-92.91,77.74a188,188,0,0,1-33.82,3.08c-37.55,0-75.21-11.45-102.9-36.87A114.89,114.89,0,0,1,234.7,346c-.31-1.43-1.81-1.86-3.9-1.86-3.25,0-7.94,1-11.88,1-2.94,0-5.46-.58-6.67-2.59-4.1-6.83,20-18.47,17.34-19.51-8.42-3.24-20.08,1.29-20.4-5.51-.26-5.3,23.44-14.49,24.28-19.74,4.86-30.37,20.21-59.28,44.9-79.45,25.94-21.21,59.79-33.07,93.52-33.07m0-6.41c-35.18,0-70.74,12.58-97.58,34.52-24.83,20.29-41.5,49.51-47,82.37-1.56,1.5-6.2,4.3-9.08,6-8.8,5.3-15.76,9.49-15.44,16.06.34,7.31,5.9,9.37,10.84,10-6,5.06-10.92,11.29-6.87,18,2.27,3.79,6.36,5.71,12.16,5.71a58.4,58.4,0,0,0,7.3-.61c1.06-.13,2.08-.26,3-.35a121.13,121.13,0,0,0,35.69,60.77c27.09,24.87,65.17,38.56,107.23,38.56a194,194,0,0,0,35-3.19c40.4-7.41,63.7-24.42,76.13-37.38,13.79-14.39,22-31.83,22-46.66,0-17.69-9.27-30-14.69-35.71,8.31-19.67,8.69-43.16,1-66.74-7.79-23.83-23.09-45-42-58-22.26-15.31-49.11-23.41-77.66-23.41Z"/><path class="cls-3" d="M347.3,289c-6.76,0-12.06,6.83-12.06,15.54S340.54,320,347.3,320s12.07-6.83,12.07-15.54S354.07,289,347.3,289Z"/><path class="cls-3" d="M347.3,323.23c-8.56,0-15.26-8.23-15.26-18.74s6.7-18.74,15.26-18.74,15.27,8.23,15.27,18.74S355.86,323.23,347.3,323.23Zm0-31.07c-5,0-8.85,5.42-8.85,12.33s3.89,12.34,8.85,12.34,8.87-5.42,8.87-12.34S352.27,292.16,347.3,292.16Z"/><path class="cls-3" d="M446.88,289c-6.77,0-12.06,6.83-12.06,15.54S440.11,320,446.88,320s12.06-6.83,12.06-15.54S453.64,289,446.88,289Z"/><path class="cls-3" d="M446.88,323.23c-8.56,0-15.27-8.23-15.27-18.74s6.71-18.74,15.27-18.74,15.26,8.23,15.26,18.74S455.44,323.23,446.88,323.23Zm0-31.07c-5,0-8.86,5.42-8.86,12.33s3.89,12.34,8.86,12.34,8.85-5.42,8.85-12.34S451.84,292.16,446.88,292.16Z"/><path class="cls-3" d="M328.87,258.8a3.2,3.2,0,0,1-2.52-5.17,20.09,20.09,0,0,1,15.24-6.84c7,0,13,5.59,13.2,5.82a3.2,3.2,0,0,1-4.43,4.63c-1.19-1.12-5.09-4-8.77-4a13.61,13.61,0,0,0-10.22,4.41A3.24,3.24,0,0,1,328.87,258.8Z"/><path class="cls-3" d="M340.08,293.78a3.2,3.2,0,0,1-2.52-5.17,20.12,20.12,0,0,1,15.24-6.83c7,0,12.95,5.58,13.2,5.82a3.2,3.2,0,0,1-4.43,4.63c-1.18-1.12-5.09-4.05-8.77-4.05a13.58,13.58,0,0,0-10.22,4.42A3.23,3.23,0,0,1,340.08,293.78Z"/><path class="cls-3" d="M440.33,258.8a3.2,3.2,0,0,1-2.52-5.17A20.08,20.08,0,0,1,453,246.79c7,0,13,5.59,13.21,5.82a3.2,3.2,0,1,1-4.43,4.63c-1.19-1.12-5.09-4-8.78-4a13.6,13.6,0,0,0-10.21,4.41A3.24,3.24,0,0,1,440.33,258.8Z"/><path class="cls-3" d="M439.65,293.78a3.2,3.2,0,0,1-2.51-5.17,20.09,20.09,0,0,1,15.23-6.83c7,0,13,5.58,13.2,5.82a3.2,3.2,0,0,1-4.42,4.64h0c-1.19-1.13-5.09-4.06-8.78-4.06a13.61,13.61,0,0,0-10.22,4.42A3.23,3.23,0,0,1,439.65,293.78Z"/><ellipse class="cls-2" cx="349.9" cy="299.58" rx="3.55" ry="4.45"/><ellipse class="cls-2" cx="449.4" cy="299.58" rx="3.55" ry="4.45"/></svg>