<?xml version="1.0" encoding="utf-8"?>
<!-- Generator: Adobe Illustrator 24.0.1, SVG Export Plug-In . SVG Version: 6.00 Build 0)  -->
<svg version="1.1" id="Layer_2_1_" xmlns="http://www.w3.org/2000/svg" xmlns:xlink="http://www.w3.org/1999/xlink" x="0px" y="0px"
	 viewBox="0 0 700 700" style="enable-background:new 0 0 700 700;" xml:space="preserve">
<style type="text/css">
	.st0{fill:#FFFFFF;stroke:#FFA5B6;stroke-width:10;stroke-linecap:round;stroke-linejoin:round;}
	.st1{fill:#FFA5B6;stroke:#FFA5B6;stroke-width:10;stroke-linecap:round;stroke-linejoin:round;}
	.st2{fill:none;stroke:#FFA5B6;stroke-width:10;stroke-linecap:round;stroke-linejoin:round;}
	.st3{fill:none;stroke:#DA291C;stroke-width:50;stroke-linecap:round;stroke-linejoin:round;}
	.st4{fill:#DA291C;}
</style>
<title>box</title>
<polygon class="st0" points="356.5,421.5 356.5,620.4 199.1,538.4 199.1,355.2 "/>
<path class="st1" d="M357,421.5l-156.9-68.4l153.5-55.4c1.8-0.6,3.7-0.6,5.5,0l155.4,55.4L357,421.5z"/>
<polygon class="st0" points="513.4,538.4 513.4,353 356,421.5 356,620.4 "/>
<polygon class="st0" points="356,421.6 408.6,481.6 555.6,403.3 514.4,353 "/>
<polygon class="st0" points="357.3,419.5 304.8,479.5 157.7,403.3 200.1,353 "/>
<line class="st2" x1="132.9" y1="227.3" x2="182.3" y2="282.8"/>
<line class="st2" x1="128" y1="296" x2="189.5" y2="318.9"/>
<line class="st2" x1="219.6" y1="211.6" x2="238.9" y2="284"/>
<line class="st2" x1="568" y1="227.3" x2="518.6" y2="282.8"/>
<line class="st2" x1="572.8" y1="296" x2="511.4" y2="318.9"/>
<line class="st2" x1="481.2" y1="211.6" x2="462" y2="284"/>
<path class="st3" d="M291.8,170c0,0-7.5-51.3,41.6-64.7c42.6-11.6,98.7,12.3,88.3,74c-9,53.2-59.4,44.6-64.6,59.1s-4,44.3-4,44.3"/>
<circle class="st4" cx="352.8" cy="350.8" r="27.9"/>
</svg>
