<svg id="Layer_2" data-name="Layer 2" xmlns="http://www.w3.org/2000/svg" viewBox="0 0 700 700"><defs><style>.cls-1{fill:#ffcee5;}.cls-2{fill:#fff;}.cls-3{fill:#ffa5b6;}</style></defs><title>elephant</title><rect class="cls-1" x="-14.08" y="-17.99" width="737.18" height="735.14"/><path class="cls-2" d="M439.34,209.43c-.22-2.33,7.4-8.93,9-10.58A54.39,54.39,0,0,1,460.93,189c16.49-8.91,32.38,6,42.79,17,36.77,39,48.18,93,46.47,144-.62,18.42-1.26,40-9.76,56.87-6.59,13-17.55,18.43-32.59,15.57-16.28-3.1-32.38-7.53-48.58-11.08C459.26,411.33,439.35,209.46,439.34,209.43Z"/><path class="cls-3" d="M515.3,426.31a42.54,42.54,0,0,1-8-.8c-9.92-1.88-19.9-4.29-29.55-6.62-6.37-1.54-12.73-3.08-19.12-4.48a3.16,3.16,0,0,1-2.47-2.77c-18.74-190-19.84-201.22-19.91-201.9h0c-.29-3,2.56-6.19,8.66-11.91.55-.51,1-.93,1.27-1.21a56.76,56.76,0,0,1,13.3-10.43C479.24,175.5,498,195.36,506,203.84c41.69,44.17,48.75,103.91,47.33,146.23l0,.55c-.63,18.92-1.35,40.37-10.08,57.65C537.23,420.17,527.66,426.31,515.3,426.31Zm-53.12-17.57c5.67,1.27,11.34,2.64,17,4,9.58,2.32,19.48,4.71,29.25,6.57,13.59,2.59,23.15-2,29.18-13.89,8.1-16,8.79-36.74,9.41-55l0-.54c1.37-41.13-5.42-99.1-45.62-141.69-11.59-12.28-25.29-23.82-39-16.43a50.65,50.65,0,0,0-11.8,9.32c-.31.31-.82.79-1.45,1.37-3.84,3.61-6.08,6-6.65,7.12C443.48,219.24,460.05,387.15,462.18,408.74Zm-19.74-199Zm.05-.64Z"/><path class="cls-2" d="M283.46,230.88c-55.63,45.48-63.2,136-9,185.68,35.58,32.66,87.84,41.94,134.82,33.32,68.92-12.65,91.61-55.19,91.61-76.66s-15.8-33.72-15.8-33.73c19.77-39.75-.73-94.7-36.39-119.24C398.49,185.71,328.75,193.87,283.46,230.88Z"/><path class="cls-3" d="M375.68,198.27c25.61,0,51.16,6.95,73,22,35.66,24.54,56.16,79.49,36.39,119.24,0,0,15.8,12.27,15.8,33.73s-22.69,64-91.61,76.66a185.61,185.61,0,0,1-33.35,3c-37,0-74.16-11.3-101.47-36.36-54.18-49.73-46.61-140.2,9-185.68,25.58-20.91,59-32.61,92.22-32.61m0-6.31c-34.68,0-69.75,12.4-96.22,34-29.49,24.11-47,60.57-48.18,100-1.06,36.84,13.12,71.54,38.89,95.19,26.72,24.52,64.27,38,105.74,38a191.33,191.33,0,0,0,34.49-3.15c39.84-7.31,62.81-24.08,75.07-36.86,13.6-14.18,21.72-31.38,21.72-46,0-17.44-9.15-29.6-14.49-35.21,8.19-19.39,8.56-42.56,1-65.8C486,248.71,470.9,227.87,452.26,215,430.31,199.94,403.83,192,375.68,192Z"/><path class="cls-2" d="M288.13,317.22s-9.34,87-40.25,120.73-110.67,9.35-115-41C124,293.29,223.45,181.4,245,179.24s54.62,51.75,56.77,65.4"/><path class="cls-3" d="M207.49,456.76a88.52,88.52,0,0,1-28.4-4.87c-22.24-7.56-46.87-25.88-49.34-54.63-5.17-60.34,26.06-119.21,45.13-148.93,26.77-41.71,57.71-71,69.81-72.23,13.42-1.31,28.33,14.5,38.51,28,10.91,14.5,20.45,32.08,21.7,40a3.16,3.16,0,1,1-6.24,1c-2.16-13.69-33.88-62.79-52.35-62.79a8.1,8.1,0,0,0-1,0C227.42,184.18,127,291.62,136.05,396.72c2.2,25.72,24.73,42.27,45.07,49.19,25.58,8.69,50.87,4.74,64.43-10.09C275.4,403.2,284.9,317.74,285,316.89a3.11,3.11,0,0,1,3.47-2.81,3.16,3.16,0,0,1,2.81,3.48c-.39,3.59-9.81,88.38-41,122.53C240.22,451,224.8,456.76,207.49,456.76Z"/><path class="cls-1" d="M390.35,381.32a4.47,4.47,0,0,0-5.11-3.21c-8.88,1.55-29.28,5.72-31.88,11.55-3.83,8.57,18.39,31.94,44.81,31.84,3.78,0,6.5-3.26,4.75-6.6C399,407.42,393,390.9,390.35,381.32Z"/><path class="cls-3" d="M398,424.66c-19.22,0-37.45-12.07-44.87-23.46-3.26-5-4.17-9.43-2.66-12.83,2.38-5.31,13.9-9.81,34.23-13.37a7.62,7.62,0,0,1,8.7,5.47h0c2.58,9.3,8.52,25.72,12.31,32.95a7.26,7.26,0,0,1-.12,7.26,8.66,8.66,0,0,1-7.4,4ZM386,381.2l-.24,0c-21.62,3.79-28.78,8-29.55,9.73-.42.95-.1,3.3,2.18,6.8,6.54,10,22.54,20.63,39.74,20.59a2.35,2.35,0,0,0,2-.91,1,1,0,0,0-.05-1.06c-4-7.69-10.1-24.4-12.81-34.21A1.32,1.32,0,0,0,386,381.2Z"/><path class="cls-3" d="M351.44,297.37c-6.67,0-11.89,6.73-11.89,15.32S344.77,328,351.44,328s11.9-6.73,11.9-15.32S358.11,297.37,351.44,297.37Z"/><path class="cls-3" d="M351.44,331.17c-8.44,0-15.05-8.12-15.05-18.48s6.61-18.48,15.05-18.48,15.05,8.11,15.05,18.48S359.88,331.17,351.44,331.17Zm0-30.64c-4.9,0-8.73,5.34-8.73,12.16s3.83,12.16,8.73,12.16,8.74-5.34,8.74-12.16S356.34,300.53,351.44,300.53Z"/><path class="cls-3" d="M449.62,297.37c-6.67,0-11.89,6.73-11.89,15.32S443,328,449.62,328s11.9-6.73,11.9-15.32S456.29,297.37,449.62,297.37Z"/><path class="cls-3" d="M449.62,331.17c-8.44,0-15.05-8.12-15.05-18.48s6.61-18.48,15.05-18.48,15.06,8.11,15.06,18.48S458.06,331.17,449.62,331.17Zm0-30.64c-4.89,0-8.73,5.34-8.73,12.16s3.84,12.16,8.73,12.16,8.74-5.34,8.74-12.16S454.52,300.53,449.62,300.53Z"/><path class="cls-3" d="M333.26,267.63a3.12,3.12,0,0,1-2-.69,3.15,3.15,0,0,1-.51-4.41,19.81,19.81,0,0,1,15-6.74c6.94,0,12.78,5.51,13,5.74a3.16,3.16,0,1,1-4.37,4.57c-1.17-1.1-5-4-8.65-4a13.47,13.47,0,0,0-10.08,4.35A3.15,3.15,0,0,1,333.26,267.63Z"/><path class="cls-3" d="M344.32,302.13a3.16,3.16,0,0,1-2.49-5.1,19.83,19.83,0,0,1,15-6.74c6.94,0,12.77,5.51,13,5.74a3.16,3.16,0,1,1-4.37,4.57c-1.17-1.11-5-4-8.65-4A13.44,13.44,0,0,0,346.78,301,3.17,3.17,0,0,1,344.32,302.13Z"/><path class="cls-3" d="M443.16,267.63a3.09,3.09,0,0,1-2-.69,3.15,3.15,0,0,1-.52-4.41,19.85,19.85,0,0,1,15-6.74c6.94,0,12.78,5.51,13,5.74a3.16,3.16,0,0,1-4.36,4.57c-1.17-1.1-5-4-8.66-4a13.41,13.41,0,0,0-10.07,4.35A3.17,3.17,0,0,1,443.16,267.63Z"/><path class="cls-3" d="M442.5,302.13A3.16,3.16,0,0,1,440,297a19.79,19.79,0,0,1,15-6.74c6.94,0,12.78,5.51,13,5.74a3.16,3.16,0,1,1-4.37,4.57c-1.17-1.11-5-4-8.65-4A13.41,13.41,0,0,0,445,301,3.19,3.19,0,0,1,442.5,302.13Z"/><ellipse class="cls-2" cx="354" cy="307.84" rx="3.51" ry="4.39"/><ellipse class="cls-2" cx="452.11" cy="307.84" rx="3.51" ry="4.39"/><path class="cls-2" d="M409.29,338.06c15.68-8,33.46-4.74,44.23,9.4,8.52,11.18,11.92,24.8,16,38,4.76,15.34,15.84,29,33.22,28.79,25.49-.35,34-27,32.15-48.52-1-12.2-5.88-30.68-18.54-36.14-1-.41,2.31-4.71,2.67-5.2a13.12,13.12,0,0,1,8.18-5.47c6.25-1.13,12.17,3.1,15.3,8.22-.63-1,2.24-5.3,2.77-6,2-2.83,4.84-5.16,8.41-5.49,4.26-.41,8.23,2.2,10.66,5.54.42.58-1.67,3.77-1.94,4.33-6.76,14.18-1.11,30.3.24,45,2.38,26,1,54.18-17.43,74.43-32.11,35.26-93.07,35.1-125.81.66-17.08-18-28.64-42.69-32-67.29"/><path class="cls-3" d="M482.28,474.51c-25.25,0-48.95-9.73-65.17-26.79-17.37-18.28-29.34-43.44-32.85-69a3.16,3.16,0,0,1,6.27-.86c3.32,24.32,14.68,48.21,31.16,65.54,15.23,16,37.66,25.13,61.56,24.83,23.4-.25,45.13-9.52,59.63-25.43,18.68-20.53,18.69-49.27,16.61-72-.33-3.6-.91-7.25-1.54-11.11-1.91-11.81-3.88-24,1.6-35.53.08-.16.27-.51.53-1,.16-.28.48-.82.75-1.32-1.69-1.81-4.16-3.36-6.85-3.1s-4.88,2.42-6.14,4.18a23.82,23.82,0,0,0-2.21,3.8,3.16,3.16,0,0,1-5.83,2.06c-2.44-4-7.12-7.64-12-6.77a10,10,0,0,0-6.21,4.27c-.52.68-.94,1.27-1.28,1.78,11.27,6.81,16.57,23.42,17.77,37.39,1.41,16.49-2.88,32-11.48,41.49-6.16,6.81-14.16,10.33-23.77,10.46-16.54.26-30.19-11.36-36.28-31-.5-1.61-1-3.23-1.49-4.85-3.38-11.2-6.88-22.78-14-32.15-9.66-12.68-25.47-16-40.28-8.49a3.16,3.16,0,0,1-2.86-5.63c17.4-8.83,36.75-4.7,48.17,10.29,7.83,10.28,11.5,22.41,15,34.15l1.47,4.81c1.94,6.27,9.8,26.58,29.74,26.58h.42a25.33,25.33,0,0,0,19.18-8.39c8.76-9.67,10.84-25.31,9.86-36.71-1.08-12.61-6.08-29-16.64-33.51a3.69,3.69,0,0,1-2-2.29c-.41-1.53,0-3.29,3.36-7.71a16.19,16.19,0,0,1,10.14-6.69c5.72-1,11.05,1.48,14.9,5.17.34-.53.72-1.1,1.16-1.71,2.89-4.06,6.59-6.41,10.68-6.8,5-.5,10.11,2.16,13.52,6.84,1.53,2.13.12,4.53-1.37,7.07l-.3.52c-4.61,9.67-2.8,20.9-1,31.75.61,3.8,1.25,7.73,1.6,11.54,2,22.17,2.34,54.25-18.24,76.85-15.67,17.21-39.08,27.23-64.23,27.49Zm62.92-149Z"/><path class="cls-2" d="M420.78,352.07c3.15-9.47,20.94-13.5,27.72-9.2"/><path class="cls-3" d="M420.79,355.23a3.12,3.12,0,0,1-1-.16,3.16,3.16,0,0,1-2-4c1.61-4.87,6.15-8.86,12.78-11.22,6.08-2.17,14.51-2.91,19.62.35a3.16,3.16,0,0,1-3.39,5.33c-2.73-1.74-8.79-1.62-14.11.27-4.61,1.65-7.95,4.36-8.91,7.25A3.15,3.15,0,0,1,420.79,355.23Z"/><path class="cls-2" d="M426.52,364.8c2.31-9.71,19.69-15.26,26.81-11.56"/><path class="cls-3" d="M426.52,368a3.63,3.63,0,0,1-.73-.08,3.17,3.17,0,0,1-2.35-3.81c1.19-5,5.37-9.35,11.77-12.27,5.87-2.69,14.21-4.14,19.58-1.36a3.16,3.16,0,0,1-2.91,5.61c-2.89-1.49-8.92-.85-14,1.49-4.46,2-7.54,5-8.25,8A3.16,3.16,0,0,1,426.52,368Z"/></svg>