<svg xmlns="http://www.w3.org/2000/svg" viewBox="0 0 355.71 228.02"><defs><style>.cls-1{fill:#ff7c73;}.cls-2{fill:#ffcecb;stroke:#ff7c73;stroke-miterlimit:10;stroke-width:3px;}</style></defs><title>Asset 2</title><g id="Layer_2" data-name="Layer 2"><g id="Layer_3" data-name="Layer 3"><path class="cls-1" d="M249.4,66.66A12.46,12.46,0,0,1,240.56,63l-22.1-22.11a12.49,12.49,0,0,1,17.67-17.67L249.4,36.48,282.22,3.66A12.5,12.5,0,0,1,299.9,21.34L258.24,63A12.46,12.46,0,0,1,249.4,66.66Z"/><path class="cls-2" d="M325.64,69.36a100,100,0,0,0-7.74-7,16.5,16.5,0,1,0-20.75,25.66,66.62,66.62,0,0,1,5.16,4.65A64.92,64.92,0,0,1,312.47,171L210.82,69.36a16.51,16.51,0,0,0-23.34,0,98.84,98.84,0,0,0-9.89,11.55,95.28,95.28,0,1,0-4.87,107.76,98.73,98.73,0,0,0,14.76,18.85c2.2,2.2,4.52,4.32,6.91,6.28a16.5,16.5,0,0,0,21-25.44c-1.58-1.3-3.12-2.7-4.59-4.17a64.78,64.78,0,0,1-10.18-78.33L302.31,207.52a16.49,16.49,0,0,0,23.34,0A97.8,97.8,0,0,0,325.64,69.36ZM96.76,193.52A62.26,62.26,0,1,1,159,131.26,62.33,62.33,0,0,1,96.76,193.52Z"/></g></g></svg>