<svg xmlns="http://www.w3.org/2000/svg" viewBox="0 0 51.61 51.61"><defs><style>.cls-1{fill:none;}.cls-2{fill:#ffcee5;}</style></defs><title>Asset 1</title><g id="Layer_2" data-name="Layer 2"><g id="Layer_2-2" data-name="Layer 2"><path class="cls-1" d="M25.8,27.7A16.7,16.7,0,0,1,42.26,41.56a22.81,22.81,0,1,0-32.91,0A16.69,16.69,0,0,1,25.8,27.7Z"/><path class="cls-2" d="M25.8,0A25.79,25.79,0,1,0,51.61,25.8,25.84,25.84,0,0,0,25.8,0ZM42.26,41.56a16.7,16.7,0,0,0-32.91,0,22.81,22.81,0,1,1,32.91,0Z"/><circle class="cls-2" cx="25.8" cy="16.58" r="9.07" transform="translate(-3.12 6.37) rotate(-13.28)"/></g></g></svg>