<?xml version="1.0" encoding="utf-8"?>
<!-- Generator: Adobe Illustrator 24.0.1, SVG Export Plug-In . SVG Version: 6.00 Build 0)  -->
<svg version="1.1" id="Layer_1" xmlns="http://www.w3.org/2000/svg" xmlns:xlink="http://www.w3.org/1999/xlink" x="0px" y="0px"
	 viewBox="0 0 500 500" style="enable-background:new 0 0 500 500;" xml:space="preserve">
<style type="text/css">
	.st0{fill:#FFFFFF;}
	.st1{fill:#FFA5B6;}
	.st2{fill:#FFCEE5;}
</style>
<title>type</title>
<g id="Layer_3">
	<path class="st0" d="M121.8,116.3c-80.5,65.8-91.5,196.8-13.1,268.8c51.5,47.3,127.1,60.7,195.1,48.2
		c99.8-18.3,132.6-79.9,132.6-111s-22.9-48.8-22.9-48.8c28.6-57.5-1.1-137.1-52.7-172.6C288.4,50.9,187.4,62.8,121.8,116.3z"/>
	<path class="st1" d="M255.3,69.1c37.1,0,74.1,10.1,105.7,31.8c51.6,35.5,81.3,115.1,52.7,172.6c0,0,22.9,17.8,22.9,48.8
		s-32.8,92.6-132.6,111c-15.9,2.9-32.1,4.4-48.3,4.4c-53.6,0-107.4-16.4-146.9-52.6c-78.4-72-67.5-203,13.1-268.8
		C158.8,86.1,207.2,69.1,255.3,69.1 M255.3,60c-50.2,0-101,17.9-139.3,49.3c-42.7,34.9-68.1,87.7-69.8,144.8
		c-1.5,53.3,19,103.6,56.3,137.8c38.7,35.5,93,55,153.1,55c16.7,0,33.5-1.5,49.9-4.6c57.7-10.6,90.9-34.9,108.7-53.4
		c19.7-20.5,31.4-45.4,31.4-66.6c0-25.3-13.2-42.9-21-51c11.8-28.1,12.4-61.6,1.4-95.3c-11.1-34-33-64.2-59.9-82.8
		C334.4,71.5,296.1,60,255.3,60L255.3,60z"/>
	<path class="st2" d="M282.4,349.8c0,0,13.2,14.6,28.5,15s24.4-17.7,24.4-17.7c-17,3.2-23.4-9.3-23.4-9.3S288.5,357.1,282.4,349.8z"
		/>
	<path class="st1" d="M311.5,369.4h-0.7c-15.5-0.4-28.4-13-31.2-15.9c-0.2-0.2-0.5-0.5-0.7-0.7l6.9-6l0.1,0.1
		c2.7,1.1,14.1-5.1,23.1-12.6l4.4-3.6l2.6,5.1c0.5,0.9,5.5,9.4,18.5,6.9l9.1-1.7l-4.1,8.2C339,349.9,329.2,369.4,311.5,369.4z
		 M294.6,354.1c4.5,3.1,10.4,5.9,16.5,6.1c6.5,0.2,11.9-4.2,15.4-8.3c-5.9-0.7-11.3-3.4-15.4-7.7C307,347.3,300.7,351.6,294.6,354.1
		z"/>
	<path class="st2" d="M311.5,291.3c8,0.3,20.2-20.9,17.3-25.4s-33.9-6.8-38.7-0.3S311.5,291.3,311.5,291.3z"/>
	<path class="st1" d="M311.7,295.9h-0.3l-1.4,0l-1.1-0.8c-5.2-3.8-22.4-17-23.8-26.1c-0.4-2.1,0.1-4.3,1.4-6
		c4-5.4,15.1-6.1,23.8-5.8c7,0.2,19.3,1.4,22.5,6.4c2.9,4.5-0.2,11.9-3.3,17.4C327.3,284.4,320.1,295.9,311.7,295.9z M294.2,268
		c1.1,3.3,9.3,11.5,18.4,18.4c1.5-0.9,2.9-2.1,4-3.5c4.6-5.1,7.6-11.8,8-14.5C319.2,265.9,298.7,265.1,294.2,268z"/>
	<path class="st1" d="M273.6,355.1c-18.5,0-33.5-9-34.3-9.5c-2.2-1.3-2.8-4.1-1.5-6.3s4.1-2.8,6.3-1.5c0.2,0.1,18.4,10.9,37.5,7.4
		s25.9-16.5,26.2-17.1c1.1-2.3,3.9-3.2,6.2-2c1.1,0.6,2,1.6,2.3,2.8c0.1,0.4,3.5,10.6,17.9,12c15.1,1.5,23.6-10.1,23.6-10.3
		c1.5-2.1,4.3-2.5,6.4-1.1s2.5,4.3,1.1,6.4c-0.5,0.7-11.8,16.1-32,14.1c-11.6-1.1-18.3-6.6-21.9-11.3c-4.8,5.5-13.6,12.9-28.2,15.5
		C280.1,354.8,276.9,355.1,273.6,355.1z"/>
	<path class="st1" d="M311.9,334.8c-0.6,0-1.2-0.1-1.8-0.4c-2.3-1-3.4-3.7-2.4-6c2.4-6.1,3.8-12.6,4.1-19.2c0.1-6-0.9-12-2.9-17.7
		c-0.9-2.4,0.3-5,2.6-5.9c2.3-0.9,4.9,0.2,5.8,2.5c2.5,6.8,3.7,14,3.6,21.3c-0.3,7.7-2,15.4-4.9,22.5
		C315.4,333.7,313.7,334.8,311.9,334.8z"/>
	<path class="st0" d="M341.5,91.1c10.6-15.5,47.3-47.4,78.9-15.8c24.5,24.5,2.7,62.5-9.8,75.9c0,0,6.5,13.2,8.3,18.4"/>
	<path class="st1" d="M418.9,174.1c-2,0-3.7-1.2-4.3-3.1c-1.7-4.9-8-17.8-8.1-17.9c-0.8-1.7-0.5-3.8,0.8-5.1
		c12.5-13.4,31.4-48,9.9-69.5c-8.9-8.9-19-13-29.8-12c-18.4,1.7-35.2,17.2-42.1,27.1c-1.4,2.1-4.3,2.6-6.4,1.2
		c-2.1-1.4-2.6-4.3-1.2-6.4c6.7-9.8,25.6-28.9,48.8-31.1c13.7-1.3,26.2,3.6,37.1,14.6c25,25,6.7,62.9-7.6,79.8
		c2,4.2,5.8,12.2,7.2,16.2c0.8,2.4-0.5,5-2.8,5.8C419.9,174,419.4,174.1,418.9,174.1z"/>
	<path class="st2" d="M370.6,108.1c1.6-7.7,23.7-30.8,37.1-18.9c13.9,12.4,2.3,28-6.9,40C392.5,140,369,115.8,370.6,108.1z"/>
	<path class="st1" d="M395.1,136.5c-2.7-0.1-5.3-0.7-7.7-1.9c-9.5-4.4-23.1-18.7-21.3-27.4l0,0c1.5-6.9,13.2-20.6,25.7-24.7
		c7.3-2.4,13.8-1.2,18.9,3.3c17.3,15.4,2.5,34.7-6.3,46.2C402.2,134.9,398.8,136.5,395.1,136.5z M375.1,109
		c0,3.4,9.2,14.9,17.4,17.8c3.4,1.2,4.3,0.1,4.6-0.4c12.2-15.9,16.8-25.5,7.5-33.8c-2.6-2.3-5.9-2.8-10-1.4
		C385.3,94.2,376,105.4,375.1,109L375.1,109z"/>
	<path class="st0" d="M213.6,93.7c0,0-27.9-67.1-75.8-56.3C61.5,54.5,93.2,154.8,93.2,154.8"/>
	<path class="st1" d="M93.2,159.4c-2,0-3.8-1.3-4.4-3.2c-0.7-2.3-17.2-55.7,4-92.5c9.2-15.9,23.9-26.3,44-30.8
		c51-11.4,79.8,56.1,81,59c1,2.3-0.1,5-2.5,6c-2.3,1-5-0.1-6-2.5c-0.3-0.6-27-63.4-70.6-53.6c-17.4,3.9-30.2,12.8-38,26.4
		c-19.2,33.3-3.4,84.7-3.2,85.2c0.8,2.4-0.6,5-3,5.7c0,0,0,0,0,0C94.1,159.3,93.7,159.4,93.2,159.4z"/>
	<path class="st2" d="M132.8,65.2c-33.9,15.3-23.4,69-12.9,73.2c6.5,2.6,58.4-18.3,62.3-26.9C186.5,102.1,156.8,54.4,132.8,65.2z"/>
	<path class="st1" d="M121.1,143.1c-1,0-2-0.1-2.9-0.4c-8.1-3.2-12.8-19.8-13.1-33.8c-0.5-22.8,8.9-40.2,25.8-47.8l0,0
		c10.8-4.9,23.6-0.7,36,11.6s23.3,32.3,19.5,40.7C182.3,122.6,135.7,143.1,121.1,143.1z M140.2,68.2c-1.9,0-3.8,0.4-5.5,1.2
		c-17.6,7.9-20.3,26.9-20.4,37.4c-0.1,15.5,5.2,26.3,7.4,27.3c8.8,1,53.4-19.3,56.4-24.6c1-3.6-7.1-21.7-21-33.6
		C152.6,72.2,146.4,68.2,140.2,68.2z"/>
	<path class="st1" d="M220.2,217.1c-9.7,0-17.2,9.7-17.2,22.2s7.6,22.2,17.2,22.2s17.2-9.7,17.2-22.2S229.9,217.1,220.2,217.1z"/>
	<path class="st1" d="M220.2,266.1c-12.2,0-21.8-11.8-21.8-26.8s9.6-26.8,21.8-26.8s21.8,11.8,21.8,26.8S232.5,266.1,220.2,266.1z
		 M220.2,221.7c-7.1,0-12.6,7.7-12.6,17.6s5.6,17.6,12.6,17.6s12.6-7.7,12.6-17.6S227.3,221.7,220.2,221.7L220.2,221.7z"/>
	<path class="st1" d="M362.4,217.1c-9.7,0-17.2,9.7-17.2,22.2s7.6,22.2,17.2,22.2s17.2-9.7,17.2-22.2S372,217.1,362.4,217.1z"/>
	<path class="st1" d="M362.4,266.1c-12.2,0-21.8-11.8-21.8-26.8s9.6-26.8,21.8-26.8s21.8,11.8,21.8,26.8S374.6,266.1,362.4,266.1z
		 M362.4,221.7c-7.1,0-12.6,7.7-12.6,17.6s5.6,17.6,12.6,17.6s12.6-7.7,12.6-17.6S369.5,221.7,362.4,221.7L362.4,221.7z"/>
	<path class="st1" d="M193.9,174.1c-2.5,0-4.6-2.1-4.6-4.6c0-1,0.3-2,1-2.8c5.5-6.2,13.4-9.8,21.7-9.7c10,0,18.5,8,18.8,8.3
		c1.8,1.7,1.9,4.6,0.1,6.5c-1.7,1.8-4.6,1.9-6.5,0.1l0,0c-1.7-1.6-7.3-5.8-12.5-5.8c-5.5-0.1-10.8,2.2-14.6,6.3
		C196.6,173.5,195.3,174.1,193.9,174.1z"/>
	<path class="st1" d="M209.9,224c-1,0-2-0.3-2.9-1c-2-1.6-2.3-4.4-0.7-6.4c5.5-6.2,13.4-9.8,21.8-9.8c10,0,18.5,8,18.9,8.3
		c1.8,1.8,1.7,4.7-0.1,6.5c-1.7,1.7-4.4,1.7-6.2,0.1c-1.7-1.6-7.3-5.8-12.5-5.8c-5.5-0.1-10.8,2.2-14.6,6.3
		C212.6,223.4,211.3,224,209.9,224z"/>
	<path class="st1" d="M353,174.1c-2.5,0-4.6-2.1-4.6-4.6c0-1,0.3-2,1-2.8c5.5-6.2,13.4-9.8,21.8-9.7c10,0,18.5,8,18.9,8.3
		c1.8,1.7,1.9,4.6,0.1,6.5c-1.7,1.8-4.6,1.9-6.5,0.1l0,0c-1.7-1.6-7.3-5.8-12.5-5.8c-5.5-0.1-10.8,2.2-14.6,6.3
		C355.7,173.5,354.4,174.1,353,174.1z"/>
	<path class="st1" d="M352.1,224c-2.5,0-4.6-2-4.6-4.6c0-1,0.3-2,1-2.8c5.5-6.3,13.4-9.8,21.8-9.8c10,0,18.5,8,18.9,8.3
		c1.8,1.7,1.9,4.6,0.1,6.5s-4.6,1.9-6.5,0.1c-1.7-1.6-7.3-5.8-12.5-5.8c-5.5-0.1-10.8,2.2-14.6,6.3C354.7,223.4,353.4,224,352.1,224
		z"/>
	<ellipse class="st0" cx="223.9" cy="232.3" rx="5.1" ry="6.4"/>
	<ellipse class="st0" cx="366" cy="232.3" rx="5.1" ry="6.4"/>
</g>
</svg>
