<?xml version="1.0" encoding="utf-8"?>
<!-- Generator: Adobe Illustrator 24.0.1, SVG Export Plug-In . SVG Version: 6.00 Build 0)  -->
<svg version="1.1" id="Layer_1" xmlns="http://www.w3.org/2000/svg" xmlns:xlink="http://www.w3.org/1999/xlink" x="0px" y="0px"
	 viewBox="0 0 500 500" style="enable-background:new 0 0 500 500;" xml:space="preserve">
<style type="text/css">
	.st0{fill:#FFFFFF;}
	.st1{fill:#FFCEE5;}
	.st2{fill:#FFA5B6;}
</style>
<title>type</title>
<g id="Layer_3">
	<path class="st0" d="M129.3,106c-81.6,66.7-92.7,199.5-13.2,272.4c52.2,47.9,128.9,61.5,197.8,48.9
		c101.1-18.6,134.4-81,134.4-112.5s-23.2-49.5-23.2-49.5c29-58.3-1.1-138.9-53.4-174.9C298.1,39.7,195.8,51.6,129.3,106z"/>
	<path class="st1" d="M277.3,196.1c18.4,31-7,63.2-53.7,102.4c-44.8,37.6-91,26-109-2.2s-8.4-73.2,43.7-99.9
		C212,169,254.3,157.4,277.3,196.1z"/>
	<path class="st1" d="M334.8,193.4c-17.4,29.4,6.6,60,51,97.2c19.7,16.5,46.2,23.4,63.6,21.9c0,0-4.4-37.2-22.6-48.8
		c0,0,6.1-12.3,9-32s0.6-43.6-5.3-46.4C389.6,166.3,353.7,161.7,334.8,193.4z"/>
	<path class="st2" d="M278.4,432c-73.5-3-142.8-55.4-148.5-144.8C123.7,189.8,163.2,92.4,238,91.4c17.5-0.2,36.3,7.1,51.4,15.4
		c0.8,0.4,9.5,5.9,15.4,9.9c3.3,2.2,7.7,1.9,10.7-0.7c12.2-10.5,47.4-33.5,80-5.2c0,0-45.8-59.6-153.4-52.1S87.4,137.1,70.2,179
		S53,315.1,101.6,367.3C153.1,422.7,210.5,436.4,278.4,432z"/>
	<path class="st2" d="M278.4,436.5h-0.1c-48-1.2-87.7-19-114.8-51.5c-33.5-40.2-45.8-101.6-34.6-172.8
		c4.2-26.9,24.6-115.6,108.5-125.4c18-2.1,36.7,6.4,54.1,15.9c1,0.6,10.1,6.3,15.8,10.1c1.6,1.1,3.7,0.9,5.2-0.3
		c7.7-6.6,48.1-38.1,86-5.2c1.9,1.7,2,4.6,0.4,6.5c-1.6,1.8-4.5,2-6.4,0.5c-31.4-27.2-64.6-2.9-74,5.2c-4.6,3.9-11.2,4.3-16.2,1
		c-6.1-4-14.3-9.2-15.1-9.7C271,102,253.9,94.1,238.5,96c-25.1,3-85.2,20.4-100.6,117.8c-10.8,68.5,0.8,127.3,32.6,165.5
		c25.3,30.4,62.6,47,108,48.2c2.5,0.1,4.5,2.3,4.3,4.8C282.7,434.6,280.8,436.5,278.4,436.5L278.4,436.5z"/>
	<path class="st2" d="M262.7,60.1c37.1,0,74.1,10.1,105.7,31.8c51.6,35.5,81.3,115.1,52.7,172.6c0,0,22.9,17.8,22.9,48.8
		s-32.9,92.6-132.6,111c-15.9,2.9-32.1,4.4-48.3,4.4c-53.6,0-107.4-16.4-146.9-52.6c-78.4-72-67.5-203,13-268.8
		C166.2,77.1,214.5,60.1,262.7,60.1 M262.7,51c-50.2,0-101,17.9-139.3,49.3c-42.7,34.9-68.1,87.7-69.8,144.8
		c-1.5,53.3,19,103.6,56.3,137.8c38.7,35.5,93,55,153.1,55c16.8,0,33.5-1.5,50-4.5c57.7-10.6,90.9-34.9,108.7-53.4
		c19.7-20.5,31.4-45.4,31.4-66.6c0-25.3-13.2-42.9-21-51c11.8-28.1,12.4-61.6,1.4-95.3c-11.1-34-33-64.2-59.9-82.8
		C341.8,62.5,303.5,51,262.7,51L262.7,51z"/>
	<path class="st2" d="M288.1,91.6c0,0-29.7-23.2-32.5-36.2s44.5,22.3,44.5,22.3s0.9-40.8,8.4-43.6s11.1,50.1,11.1,50.1
		s22.3-37.1,31.5-36.2s-14.8,45.5-14.8,45.5"/>
	<path class="st1" d="M336.4,98c-0.8,0-1.5-0.2-2.2-0.6c-2.2-1.2-3-4-1.9-6.2c0,0,0,0,0,0c7.5-13.8,14.9-30.5,16.2-37.6
		c-5.3,4-16,17.8-25,32.9c-1.3,2.2-4.1,2.9-6.3,1.6c-1.3-0.8-2.1-2.1-2.2-3.6c-1.1-16.2-3.7-34.8-6.2-42.9
		c-2.1,6.7-3.9,21.4-4.2,36.2c-0.1,2.5-2.2,4.5-4.7,4.5c-0.9,0-1.9-0.3-2.6-0.9C284.8,72,269.6,62,261.8,58.5
		c5.1,8.9,19.7,22.2,29.1,29.5c2,1.6,2.3,4.4,0.8,6.4c-1.6,2-4.4,2.3-6.4,0.8c-3.2-2.5-31.1-24.6-34.1-38.8c-1-4.5,1.5-6.6,2.6-7.4
		c2.1-1.4,7.7-4.9,42.1,19.9c1.2-23.7,4.9-36.8,11-39.1c1.9-0.7,3.9-0.5,5.6,0.6c5.5,3.5,8.7,21.5,10.6,39.8
		c8.9-13.4,20.3-27.7,28.6-26.8c2.2,0.2,4.2,1.5,5.2,3.5c4,7.6-6.8,30.6-16.5,48.7C339.6,97.1,338,98,336.4,98z"/>
	<path class="st2" d="M227.6,208.1c-9.7,0-17.2,9.7-17.2,22.2s7.6,22.2,17.2,22.2s17.2-9.7,17.2-22.2S237.3,208.1,227.6,208.1z"/>
	<path class="st2" d="M227.6,257.1c-12.2,0-21.8-11.8-21.8-26.8s9.6-26.8,21.8-26.8s21.8,11.8,21.8,26.8S239.9,257.1,227.6,257.1z
		 M227.6,212.7c-7.1,0-12.6,7.7-12.6,17.6s5.6,17.6,12.6,17.6s12.6-7.7,12.6-17.6S234.7,212.7,227.6,212.7L227.6,212.7z"/>
	<path class="st2" d="M369.8,208.1c-9.7,0-17.2,9.7-17.2,22.2s7.6,22.2,17.2,22.2s17.2-9.7,17.2-22.2S379.4,208.1,369.8,208.1z"/>
	<path class="st2" d="M369.8,257.1c-12.2,0-21.8-11.8-21.8-26.8s9.6-26.8,21.8-26.8s21.8,11.8,21.8,26.8S382,257.1,369.8,257.1z
		 M369.8,212.7c-7.1,0-12.6,7.7-12.6,17.6s5.5,17.6,12.6,17.6s12.6-7.7,12.6-17.6S376.9,212.7,369.8,212.7L369.8,212.7z"/>
	<path class="st2" d="M207.2,168.8c-0.7,0-1.3-0.1-2-0.4c-2.3-1.1-3.3-3.8-2.2-6.1c4-7.3,10.9-12.6,19-14.4
		c9.8-2.2,19.8,3.6,20.2,3.9c2.2,1.3,2.9,4.1,1.6,6.3c-1.3,2.2-4.1,2.9-6.3,1.6l0,0c-2-1.2-8.4-4-13.5-2.8c-5.4,1.2-10,4.6-12.8,9.4
		C210.6,167.8,209,168.8,207.2,168.8z"/>
	<path class="st2" d="M217.3,215c-2.5,0-4.6-2-4.6-4.6c0-1,0.3-2,1-2.8c5.5-6.3,13.4-9.8,21.8-9.8c10,0,18.5,8,18.9,8.3
		c1.8,1.7,1.9,4.6,0.1,6.5s-4.6,1.9-6.5,0.1c-1.7-1.6-7.3-5.8-12.5-5.8c-5.5-0.1-10.8,2.2-14.6,6.3C220,214.4,218.7,215,217.3,215z"
		/>
	<path class="st2" d="M359.5,215c-2.5,0-4.6-2-4.6-4.6c0-1,0.3-2,1-2.8c5.5-6.3,13.4-9.8,21.8-9.8c10,0,18.5,8,18.9,8.3
		c1.8,1.7,1.9,4.6,0.1,6.5s-4.6,1.9-6.5,0.1c-1.7-1.6-7.3-5.8-12.5-5.8c-5.5-0.1-10.9,2.2-14.6,6.3C362.1,214.4,360.8,215,359.5,215
		z"/>
	<ellipse class="st0" cx="231.3" cy="223.3" rx="5.1" ry="6.4"/>
	<ellipse class="st0" cx="373.4" cy="223.3" rx="5.1" ry="6.4"/>
	<path class="st2" d="M401,165.9c-1.7,0-3.2-0.9-4-2.4c-3-4.7-7.8-7.8-13.3-8.7c-5.2-0.9-11.4,2.3-13.3,3.6
		c-2.1,1.4-4.9,0.9-6.3-1.2c-1.4-2.1-0.9-4.9,1.2-6.3l0,0c0.4-0.3,10.1-6.7,20-5c8.2,1.3,15.4,6.2,19.8,13.2c1.2,2.2,0.4,5-1.8,6.2
		C402.5,165.7,401.8,165.9,401,165.9z"/>
	<path class="st1" d="M294.4,331.6c0,0,13.2,14.6,28.5,15s24.4-17.7,24.4-17.7c-17,3.2-23.4-9.3-23.4-9.3S300.5,339,294.4,331.6z"/>
	<path class="st2" d="M323.5,351.2h-0.7c-15.5-0.5-28.4-13-31.2-15.9c-0.2-0.2-0.5-0.5-0.7-0.8l6.9-6l0.1,0.1
		c2.5,1,13-4.2,23.1-12.6l4.4-3.6l2.6,5c0.5,0.9,5.5,9.4,18.5,6.9l9.1-1.7l-4.1,8.4C351,331.8,341.1,351.2,323.5,351.2z M306.6,336
		c4.5,3,10.4,5.9,16.5,6.1c6.6,0.2,11.9-4.2,15.4-8.3c-5.9-0.7-11.3-3.4-15.4-7.7C319,329.1,312.7,333.5,306.6,336z"/>
	<path class="st2" d="M285.6,337c-18.5,0-33.5-9-34.3-9.5c-2.2-1.3-2.8-4.1-1.5-6.3s4.1-2.8,6.3-1.5l0,0c0.2,0.1,18.4,10.9,37.5,7.4
		s25.9-16.5,26.2-17.1c0.8-1.7,2.6-2.7,4.5-2.5c1.9,0.2,3.5,1.4,4,3.2c0.1,0.4,3.5,10.6,17.9,12c15.1,1.5,23.6-10.1,23.6-10.3
		c1.5-2.1,4.3-2.5,6.4-1.1s2.5,4.3,1.1,6.4c-0.5,0.6-11.8,16-32,14.1c-11.6-1.1-18.2-6.6-21.9-11.3c-4.8,5.5-13.6,12.9-28.2,15.5
		C292,336.7,288.8,337,285.6,337z"/>
	<path class="st2" d="M323.8,316.7c-2.5,0-4.6-2.1-4.6-4.6c0-0.6,0.1-1.2,0.4-1.8c2.4-6.1,3.8-12.6,4.1-19.2c0.1-6-0.9-12-2.9-17.7
		c-0.9-2.3,0.2-5,2.5-6c2.3-0.9,5,0.2,6,2.5l0,0c2.5,6.8,3.7,14,3.6,21.3c-0.3,7.8-2,15.4-4.9,22.6
		C327.3,315.6,325.6,316.7,323.8,316.7z"/>
	<path class="st1" d="M328.2,291c26.1-0.8,45-35.6,35.5-44.7c-16-15.3-68.5-10-81.4-0.2C262.8,261.1,297.1,287,328.2,291z"/>
	<path class="st2" d="M328,295.6l-0.4,0c-22.4-2.8-50.4-17.7-55-34.6c-1.9-7,0.6-13.6,6.9-18.4c14-10.7,69.1-16.9,87.3,0.5
		c4.5,4.3,5.1,12,1.6,21c-5.9,15.2-21.5,31-40.2,31.5L328,295.6z M327.3,241.4c-17.6,0-36,3.7-42.2,8.4c-4.5,3.4-4.2,6.6-3.6,8.8
		c2.8,10.5,23.9,24.8,46.9,27.8c14.4-0.6,27-13.6,31.6-25.6c2.3-5.9,1.9-9.9,0.6-11.1C354.4,243.7,341.2,241.4,327.3,241.4
		L327.3,241.4z"/>
</g>
</svg>
