<?xml version="1.0" encoding="utf-8"?>
<!-- Generator: Adobe Illustrator 24.0.1, SVG Export Plug-In . SVG Version: 6.00 Build 0)  -->
<svg version="1.1" id="Layer_1" xmlns="http://www.w3.org/2000/svg" xmlns:xlink="http://www.w3.org/1999/xlink" x="0px" y="0px"
	 viewBox="0 0 500 500" style="enable-background:new 0 0 500 500;" xml:space="preserve">
<style type="text/css">
	.st0{fill:#FFFFFF;}
	.st1{fill:#FFA5B6;}
	.st2{fill:#FFCEE5;}
</style>
<title>type</title>
<g id="Layer_3">
	<path class="st0" d="M118.8,119c-80.5,65.8-91.5,196.8-13,268.8c51.5,47.3,127.1,60.7,195.1,48.2c99.8-18.3,132.6-79.9,132.6-111
		s-22.9-48.8-22.9-48.8c28.6-57.5-1.1-137.1-52.7-172.6C285.3,53.6,184.4,65.4,118.8,119z"/>
	<path class="st1" d="M252.3,71.8c37.1,0,74.1,10.1,105.7,31.8c51.6,35.5,81.3,115.1,52.7,172.6c0,0,22.9,17.8,22.9,48.8
		s-32.9,92.6-132.6,111c-15.9,2.9-32.1,4.4-48.3,4.4c-53.6,0-107.4-16.4-146.9-52.6c-78.4-72-67.5-203,13-268.8
		C155.7,88.8,204.1,71.8,252.3,71.8 M252.2,62.7c-50.2,0-101,17.9-139.3,49.3c-42.7,34.9-68.1,87.7-69.8,144.8
		c-1.5,53.3,19,103.6,56.3,137.8c38.7,35.5,93,55,153.1,55c16.7,0,33.5-1.5,49.9-4.6c57.7-10.5,91-34.8,108.7-53.3
		c19.7-20.5,31.4-45.4,31.4-66.6c0-25.3-13.2-42.9-21-51c11.8-28.1,12.4-61.6,1.4-95.3c-11.1-34-33-64.2-59.9-82.8
		C331.4,74.2,293,62.7,252.2,62.7L252.2,62.7z"/>
	<path class="st2" d="M279.4,352.5c0,0,13.2,14.6,28.5,15s24.4-17.7,24.4-17.7c-17,3.2-23.4-9.3-23.4-9.3S285.4,359.8,279.4,352.5z"
		/>
	<path class="st1" d="M308.5,372h-0.7c-15.5-0.4-28.4-13-31.2-15.9c-0.2-0.2-0.5-0.5-0.7-0.8l6.9-6l0.1,0.1c2.5,1,13-4.2,23.1-12.6
		l4.4-3.6l2.6,5c0.5,0.9,5.5,9.4,18.5,6.9l9.1-1.7l-4.1,8.2C336,352.6,326.1,372,308.5,372z M291.6,356.8c4.5,3.1,10.4,5.9,16.5,6.1
		c6.6,0.2,11.9-4.2,15.4-8.3c-5.9-0.7-11.3-3.4-15.4-7.7C304,350,297.7,354.3,291.6,356.8z"/>
	<path class="st2" d="M308.5,294c8,0.3,20.2-20.9,17.3-25.4s-33.9-6.8-38.7-0.3S308.5,294,308.5,294z"/>
	<path class="st1" d="M308.7,298.6h-0.3l-1.4,0l-1.1-0.8c-5.2-3.8-22.4-17-23.8-26.1c-0.4-2.1,0.1-4.3,1.4-6
		c4-5.4,15.1-6.1,23.8-5.8c7,0.2,19.3,1.4,22.5,6.4c2.9,4.5-0.2,11.9-3.3,17.4C324.3,287.1,317,298.6,308.7,298.6z M291.2,270.7
		c1.1,3.3,9.3,11.5,18.4,18.4c1.5-0.9,2.9-2.1,4-3.4c4.6-5.1,7.6-11.8,8-14.5C316.2,268.6,295.7,267.8,291.2,270.7z"/>
	<path class="st1" d="M270.6,357.8c-18.5,0-33.5-9-34.3-9.5c-2.2-1.3-2.8-4.1-1.5-6.3s4.1-2.8,6.3-1.5c0.2,0.1,18.4,10.9,37.5,7.4
		s25.9-16.5,26.2-17.1c1.2-2.2,3.9-3.1,6.2-2c1.1,0.6,1.9,1.6,2.3,2.8c0.1,0.4,3.5,10.6,17.9,12c15.1,1.5,23.6-10.1,23.6-10.3
		c1.3-2.2,4.1-2.9,6.2-1.7s2.9,4.1,1.7,6.2c-0.1,0.2-0.3,0.5-0.5,0.7c-0.5,0.7-11.8,16.1-32,14.1c-11.6-1.1-18.2-6.6-21.9-11.3
		c-4.8,5.5-13.6,12.9-28.2,15.5C277,357.5,273.8,357.8,270.6,357.8z"/>
	<path class="st1" d="M308.8,337.5c-0.6,0-1.2-0.1-1.8-0.4c-2.3-1-3.4-3.7-2.4-6c2.4-6.1,3.8-12.6,4.1-19.2c0.1-6-0.9-12-2.9-17.7
		c-0.9-2.4,0.3-5,2.6-5.9c2.3-0.9,4.9,0.2,5.8,2.5c2.5,6.8,3.7,14,3.6,21.3c-0.3,7.7-2,15.4-4.9,22.5
		C312.3,336.4,310.7,337.5,308.8,337.5z"/>
	<path class="st0" d="M338.4,93.7c10.6-15.5,47.3-47.4,78.9-15.8c24.5,24.5,2.7,62.5-9.8,75.9c0,0,6.5,13.2,8.3,18.4"/>
	<path class="st1" d="M415.8,176.8c-2,0-3.7-1.2-4.3-3.1c-1.7-4.9-8-17.8-8.1-17.9c-0.8-1.7-0.5-3.7,0.7-5.1
		c12.5-13.4,31.4-48,9.9-69.5c-8.9-8.9-19-13-29.8-12c-18.4,1.7-35.2,17.2-42.1,27.1c-1.4,2.1-4.3,2.6-6.4,1.2
		c-2.1-1.4-2.6-4.3-1.2-6.4c6.7-9.8,25.6-28.9,48.8-31.1c13.7-1.3,26.2,3.6,37.1,14.6c25,25,6.7,62.9-7.6,79.8
		c2,4.2,5.8,12.2,7.2,16.2c0.8,2.4-0.5,5-2.8,5.8C416.9,176.7,416.4,176.8,415.8,176.8z"/>
	<path class="st2" d="M367.6,110.8c1.6-7.7,23.7-30.8,37.1-18.9c13.9,12.4,2.3,28-6.9,40C389.5,142.7,365.9,118.5,367.6,110.8z"/>
	<path class="st1" d="M392.1,139.2c-2.7-0.1-5.3-0.7-7.7-1.9c-9.5-4.4-23.1-18.7-21.3-27.4l0,0c1.5-6.9,13.2-20.6,25.7-24.7
		c7.3-2.4,13.8-1.2,18.9,3.3c17.4,15.4,2.5,34.7-6.3,46.2C399.2,137.5,395.7,139.2,392.1,139.2z M372.1,111.7
		c0,3.4,9.2,14.9,17.4,17.8c3.4,1.2,4.3,0.1,4.6-0.4c12.3-15.9,16.8-25.5,7.5-33.8c-2.6-2.3-5.9-2.8-10-1.4
		C382.3,96.9,372.9,108.1,372.1,111.7L372.1,111.7z"/>
	<path class="st0" d="M210.6,96.4c0,0-27.9-67.1-75.8-56.3C58.5,57.2,90.2,157.5,90.2,157.5"/>
	<path class="st1" d="M90.2,162.1c-2,0-3.8-1.3-4.4-3.2c-0.7-2.3-17.2-55.7,4-92.5c9.2-15.9,24-26.3,44-30.8
		c51-11.4,79.8,56.1,81,59c1,2.3-0.1,5-2.5,6c-2.3,1-5-0.1-6-2.5c-0.3-0.6-27-63.4-70.6-53.6c-17.4,3.9-30.2,12.8-38,26.4
		c-19.2,33.3-3.4,84.7-3.2,85.2c0.8,2.4-0.6,5-3,5.7c0,0,0,0,0,0C91.1,162,90.7,162.1,90.2,162.1z"/>
	<path class="st2" d="M129.8,67.9c-33.9,15.3-23.4,69-12.9,73.2c6.5,2.6,58.4-18.3,62.3-26.9C183.5,104.8,153.7,57.1,129.8,67.9z"/>
	<path class="st1" d="M118.1,145.8c-1,0-2-0.1-2.9-0.4c-8.1-3.2-12.8-19.8-13.1-33.8c-0.5-22.8,8.9-40.2,25.8-47.8l0,0
		c10.8-4.9,23.6-0.7,36,11.6s23.3,32.3,19.5,40.7C179.3,125.3,132.7,145.8,118.1,145.8z M137.2,70.9c-1.9,0-3.8,0.4-5.5,1.2
		c-17.6,7.9-20.3,26.9-20.4,37.4c-0.1,15.5,5.2,26.3,7.4,27.3c8.8,1,53.4-19.3,56.4-24.6c1-3.6-7.1-21.7-21-33.6
		C149.5,74.9,143.4,70.9,137.2,70.9z"/>
	<path class="st1" d="M217.2,219.8c-9.7,0-17.2,9.7-17.2,22.2s7.6,22.2,17.2,22.2s17.2-9.7,17.2-22.2S226.9,219.8,217.2,219.8z"/>
	<path class="st1" d="M217.2,268.8c-12.2,0-21.8-11.8-21.8-26.8s9.6-26.8,21.8-26.8S239,227,239,242S229.4,268.8,217.2,268.8z
		 M217.2,224.4c-7.1,0-12.6,7.7-12.6,17.6s5.6,17.6,12.6,17.6s12.6-7.7,12.6-17.6S224.3,224.4,217.2,224.4L217.2,224.4z"/>
	<path class="st1" d="M359.3,219.8c-9.7,0-17.2,9.7-17.2,22.2s7.6,22.2,17.2,22.2s17.2-9.7,17.2-22.2S369,219.8,359.3,219.8z"/>
	<path class="st1" d="M359.3,268.8c-12.2,0-21.8-11.8-21.8-26.8s9.6-26.8,21.8-26.8s21.8,11.8,21.8,26.8S371.5,268.8,359.3,268.8z
		 M359.3,224.4c-7.1,0-12.6,7.7-12.6,17.6s5.6,17.6,12.6,17.6S372,251.9,372,242S366.4,224.4,359.3,224.4L359.3,224.4z"/>
	<path class="st1" d="M190.9,176.8c-2.5,0-4.6-2.1-4.6-4.6c0-1,0.3-2,1-2.8c5.5-6.2,13.4-9.8,21.8-9.7c10,0,18.5,8,18.8,8.3
		c1.8,1.7,1.9,4.6,0.1,6.5c-1.7,1.8-4.6,1.9-6.5,0.1c-1.7-1.6-7.3-5.8-12.5-5.8c-5.5-0.1-10.8,2.2-14.6,6.3
		C193.6,176.2,192.3,176.8,190.9,176.8z"/>
	<path class="st1" d="M206.9,226.7c-2.5,0-4.6-2-4.6-4.6c0-1,0.3-2,1-2.8c5.5-6.3,13.4-9.8,21.8-9.8c10,0,18.5,8,18.9,8.3
		c1.8,1.8,1.7,4.7-0.1,6.5c-1.7,1.7-4.4,1.7-6.2,0.1c-1.7-1.6-7.3-5.8-12.5-5.8c-5.5-0.1-10.8,2.2-14.6,6.3
		C209.6,226.1,208.3,226.7,206.9,226.7z"/>
	<path class="st1" d="M350,176.8c-2.5,0-4.6-2.1-4.6-4.6c0-1,0.3-2,1-2.8c5.5-6.2,13.4-9.8,21.8-9.7c10,0,18.5,8,18.9,8.3
		c1.8,1.7,1.9,4.6,0.1,6.5c-1.7,1.8-4.6,1.9-6.5,0.1l0,0c-1.7-1.6-7.3-5.8-12.5-5.8c-5.5-0.1-10.8,2.2-14.6,6.3
		C352.7,176.2,351.4,176.8,350,176.8z"/>
	<path class="st1" d="M349,226.7c-2.5,0-4.6-2-4.6-4.6c0-1,0.3-2,1-2.8c5.5-6.2,13.4-9.8,21.8-9.7c10,0,18.5,8,18.9,8.3
		c1.8,1.7,1.9,4.6,0.1,6.5s-4.6,1.9-6.5,0.1c-1.7-1.6-7.3-5.8-12.5-5.8c-5.5-0.1-10.8,2.2-14.6,6.3
		C351.7,226.1,350.4,226.7,349,226.7z"/>
	<ellipse class="st0" cx="220.9" cy="235" rx="5.1" ry="6.4"/>
	<ellipse class="st0" cx="362.9" cy="235" rx="5.1" ry="6.4"/>
	<path class="st1" d="M261.4,68.7c0,0,0.5,70.2,18.8,76.3s4.5-75.3,4.5-75.3L261.4,68.7z"/>
	<path class="st1" d="M296.2,71.5c0,0,0.5,70.2,18.8,76.3c14.5,4.9,8.9-45,5.9-66.1C320.1,76.1,296.2,71.5,296.2,71.5z"/>
	<path class="st1" d="M226.6,67.7c0,0,0.5,70.2,18.8,76.3s4.5-75.3,4.5-75.3L226.6,67.7z"/>
</g>
</svg>
