<?xml version="1.0" encoding="utf-8"?>
<!-- Generator: Adobe Illustrator 24.0.1, SVG Export Plug-In . SVG Version: 6.00 Build 0)  -->
<svg version="1.1" id="Layer_1" xmlns="http://www.w3.org/2000/svg" xmlns:xlink="http://www.w3.org/1999/xlink" x="0px" y="0px"
	 viewBox="0 0 500 500" style="enable-background:new 0 0 500 500;" xml:space="preserve">
<style type="text/css">
	.st0{fill:#FFA5B6;}
	.st1{fill:#FFFFFF;}
	.st2{fill:#FFCEE5;}
</style>
<title>type</title>
<g id="Layer_3">
	<path class="st0" d="M343.6,97.6c0,0,21.3-32.3,36.3-29.4s21.5,37.2,16.2,51.3S343.6,97.6,343.6,97.6z"/>
	<path class="st0" d="M390.8,129.5c-14.9,0-40.4-18.2-51.4-26.5l-5.1-3.9l3.5-5.3c4-6,24.7-36,43.3-32.3c4.4,0.9,10.7,3.9,15.9,13.3
		c7.5,13.5,10,35.1,5.4,47.1c-1.3,3.5-4.2,6.1-7.8,7.1C393.4,129.4,392.1,129.6,390.8,129.5z M353,96c15.6,11.2,31.4,19.8,36.9,19.9
		c2.3-7.9,0.8-24.3-4.9-34.5c-2-3.7-4.4-6.1-6.5-6.5C373.2,73.9,361.8,84.4,353,96z"/>
	<path class="st0" d="M195.2,66.9c0,0-21.3-32.3-36.3-29.3s-21.5,37.2-16.2,51.3S195.2,66.9,195.2,66.9z"/>
	<path class="st0" d="M148,98.9c-1.3,0-2.6-0.2-3.9-0.5c-3.6-1-6.5-3.6-7.8-7.1c-4.6-12-2.1-33.6,5.4-47.1
		c4.1-7.5,9.6-12.1,15.9-13.3c18.6-3.7,39.4,26.3,43.3,32.3l3.5,5.3l-5.1,3.9C188.4,80.7,162.9,98.9,148,98.9z M161,44.2
		c-0.3,0-0.5,0-0.8,0.1c-2.1,0.4-4.5,2.8-6.5,6.5c-5.7,10.2-7.2,26.6-4.9,34.5c5.5-0.1,21.4-8.7,36.9-19.9
		C177.4,54.3,166.7,44.2,161,44.2z"/>
	<path class="st1" d="M387.6,132.6c0,0,69.3-15.1,79.1,8.2s-20.2,43.9-43.1,52.7"/>
	<path class="st0" d="M423.6,198.1c-2.5,0-4.6-2.1-4.6-4.6c0-1.9,1.2-3.6,2.9-4.3c14.9-5.8,34.5-17.4,40.4-31.3
		c2.2-4.9,2.3-10.5,0.2-15.4c-6.1-14.4-48.5-11-73.9-5.5c-2.5,0.4-4.9-1.3-5.3-3.7c-0.4-2.3,1-4.6,3.3-5.2
		c7.5-1.6,73.4-15.2,84.3,10.9c3.1,7.2,3,15.4-0.2,22.5c-7,16.5-28.1,29.5-45.5,36.3C424.7,198,424.2,198.1,423.6,198.1z"/>
	<path class="st1" d="M120.5,114.3C39.9,180.2,29,311.1,107.4,383.1c51.5,47.3,127.2,60.7,195.2,48.2
		c99.8-18.3,132.6-79.9,132.6-111s-22.9-48.8-22.9-48.8c28.7-57.5-1.1-137.1-52.7-172.6C287,48.9,186,60.8,120.5,114.3z"/>
	<path class="st0" d="M254,67.1c37.1,0,74.1,10.1,105.7,31.8c51.6,35.5,81.3,115.1,52.7,172.6c0,0,22.9,17.8,22.9,48.8
		s-32.9,92.6-132.6,111c-15.9,2.9-32.1,4.4-48.3,4.4c-53.6,0-107.4-16.4-146.9-52.6c-78.4-72-67.5-203,13.1-268.8
		C157.5,84.1,205.8,67.2,254,67.1 M254,58c-50.2,0-101,17.9-139.3,49.3C72,142.2,46.6,195,44.9,252.1c-1.5,53.3,19,103.6,56.3,137.8
		c38.7,35.5,93,55,153.1,55c16.7,0,33.5-1.5,49.9-4.6c57.7-10.6,90.9-34.8,108.7-53.3c19.7-20.5,31.4-45.4,31.4-66.6
		c0-25.3-13.2-42.9-21-51c11.8-28.1,12.4-61.6,1.4-95.3c-11.1-34-33-64.2-59.9-82.8C333.1,69.5,294.7,58,254,58L254,58z"/>
	<path class="st0" d="M218.9,215.1c-9.7,0-17.2,9.7-17.2,22.2s7.6,22.2,17.2,22.2s17.2-9.7,17.2-22.2S228.5,215.1,218.9,215.1z"/>
	<path class="st0" d="M218.9,264.1c-12.2,0-21.8-11.8-21.8-26.8s9.6-26.8,21.8-26.8s21.8,11.8,21.8,26.8S231.1,264.1,218.9,264.1z
		 M218.9,219.7c-7.1,0-12.6,7.7-12.6,17.6s5.5,17.6,12.6,17.6s12.6-7.7,12.6-17.6S226,219.7,218.9,219.7L218.9,219.7z"/>
	<path class="st0" d="M361,215.1c-9.6,0-17.2,9.7-17.2,22.2s7.6,22.2,17.2,22.2s17.2-9.7,17.2-22.2S370.7,215.1,361,215.1z"/>
	<path class="st0" d="M361,264.1c-12.2,0-21.8-11.8-21.8-26.8s9.6-26.8,21.8-26.8s21.8,11.8,21.8,26.8S373.2,264.1,361,264.1z
		 M361,219.7c-7.1,0-12.6,7.7-12.6,17.6s5.5,17.6,12.6,17.6s12.6-7.7,12.6-17.6S368.1,219.7,361,219.7L361,219.7z"/>
	<path class="st0" d="M192.6,172.1c-2.5,0-4.6-2-4.6-4.6c0-1,0.3-2,1-2.8c5.5-6.2,13.4-9.8,21.7-9.7c10,0,18.5,8,18.9,8.3
		c1.8,1.8,1.7,4.7-0.1,6.5c-1.7,1.7-4.4,1.7-6.2,0.1c-1.7-1.6-7.3-5.8-12.5-5.8c-5.5-0.1-10.8,2.2-14.6,6.3
		C195.2,171.5,193.9,172.1,192.6,172.1z"/>
	<path class="st0" d="M208.6,222c-2.5,0-4.6-2-4.6-4.5c0-1,0.3-2,1-2.8c5.5-6.2,13.4-9.8,21.8-9.8c10,0,18.5,8,18.9,8.3
		c1.8,1.7,1.9,4.6,0.1,6.5s-4.6,1.9-6.5,0.1c-1.7-1.6-7.3-5.8-12.5-5.8c-5.5-0.1-10.8,2.2-14.6,6.3C211.3,221.4,210,222,208.6,222z"
		/>
	<path class="st0" d="M351.7,172.1c-2.5,0-4.6-2-4.6-4.6c0-1,0.3-2,1-2.8c5.5-6.2,13.4-9.8,21.8-9.7c10,0,18.5,8,18.9,8.3
		c1.8,1.7,1.9,4.6,0.1,6.5c-1.7,1.8-4.6,1.9-6.5,0.1c-1.7-1.6-7.3-5.8-12.5-5.8c-5.5-0.1-10.8,2.2-14.6,6.3
		C354.3,171.5,353,172.1,351.7,172.1z"/>
	<path class="st0" d="M350.7,222c-2.5,0-4.6-2-4.6-4.5c0-1,0.3-2,1-2.8c5.5-6.2,13.4-9.8,21.8-9.8c10,0,18.5,8,18.9,8.3
		c1.8,1.7,1.9,4.6,0.1,6.5s-4.6,1.9-6.5,0.1c-1.7-1.6-7.3-5.8-12.5-5.8c-5.5-0.1-10.8,2.2-14.6,6.3C353.4,221.4,352.1,222,350.7,222
		z"/>
	<ellipse class="st1" cx="222.6" cy="230.3" rx="5.1" ry="6.4"/>
	<ellipse class="st1" cx="364.6" cy="230.3" rx="5.1" ry="6.4"/>
	<path class="st0" d="M279.4,394.8c-14.2,0-25.6-8.2-26.2-8.6c-2-1.5-2.5-4.3-1-6.4c1.5-2,4.3-2.5,6.4-1l0,0l0,0
		c0.1,0.1,13,9.1,26.3,6.3c4.4-0.9,8.6-3,12-6c5.6-5.1,14.2-5.4,20.1-0.6c2.1,1.6,4.6,2.6,7.2,2.8c9.9,1.2,15.8-8.1,16-8.5
		c1.4-2.1,4.2-2.7,6.3-1.3c2,1.3,2.6,3.9,1.5,6c-0.4,0.6-9.1,14.8-24.9,12.9c-4.3-0.4-8.4-2.1-11.8-4.7c-2.5-2.1-6.1-2-8.5,0.2
		c-4.6,4-10.1,6.8-16.1,8.1C284.4,394.6,281.9,394.9,279.4,394.8z"/>
	<path class="st2" d="M323.8,264.3c52.5,0,97.5,0.4,112.5,33.8c17.2,38.3-30.8,68.3-123.8,64.5S194,339.6,199.3,306.3
		C203.8,277.8,271.3,264.3,323.8,264.3z"/>
	<path class="st0" d="M327.6,367.4c-5,0-10-0.1-15.2-0.3c-61.6-2.5-95.6-11.5-110.2-29.3c-7.1-8.6-9.5-19.2-7.4-32.3
		c5.3-33.7,80.1-45.9,129.1-45.9c51.6,0,100.3,0,116.7,36.5c5.9,13,5.1,25.6-2.3,36.5C423.3,354.8,382.5,367.4,327.6,367.4z
		 M323.8,268.8c-54.8,0-116.3,14.6-120,38.1c-1.7,10.5,0.1,18.5,5.5,25.1c12.4,15.1,46.3,23.6,103.5,25.9
		c88,3.5,112.5-22.4,117.9-30.4c5.6-8.2,6.1-17.5,1.5-27.6C418.2,268.8,374.5,268.8,323.8,268.8L323.8,268.8z"/>
	<ellipse class="st0" cx="303.4" cy="289.2" rx="4.9" ry="8.7"/>
	<ellipse class="st0" cx="349.8" cy="289.2" rx="4.9" ry="8.7"/>
	<path class="st1" d="M163.9,103.6c0,0-89.3-61.6-117.6-15.3c-16.6,27.1,0.1,66.5,29.6,83.8"/>
	<path class="st0" d="M76,176.7c-0.8,0-1.6-0.2-2.3-0.6c-17.9-10.5-31.6-28.6-36.5-48.4c-3.8-15.2-1.9-30,5.3-41.8
		c5.7-9.5,15.1-16.1,26-18.2c38.9-8.2,95.6,30.5,98,32.2c2.1,1.4,2.6,4.3,1.2,6.4c-1.4,2.1-4.3,2.6-6.4,1.2
		c-0.6-0.4-56-38.2-91-30.8c-8.4,1.6-15.8,6.7-20.1,14.1c-7.6,12.4-6.5,25.7-4.2,34.8c4.3,17.2,16.7,33.6,32.3,42.7
		c2.2,1.3,2.9,4.1,1.6,6.3c-0.8,1.4-2.3,2.3-3.9,2.3H76z"/>
	<path class="st2" d="M146.7,126.4c0.7-3.5-0.1-7.1-2.2-9.9c-4.5-6.1-12.3-9-18.8-12.2c-16.9-8.1-59.9-23.4-61.7,8.5
		c-1,17.3,9.1,38.6,25.9,45.2s35.3-4,47.1-15.7C141.1,138.3,145.6,132.4,146.7,126.4z"/>
	<path class="st0" d="M100.9,164.7c-4.3,0-8.6-0.8-12.7-2.4c-19.3-7.6-29.8-31.2-28.8-49.7c0.5-9.3,4.2-16,10.8-20
		c17.8-10.5,50.9,4.5,57.4,7.6l2.7,1.3c6.2,2.9,13.3,6.2,17.8,12.3c2.9,3.9,3.9,8.8,3,13.5l0,0c-1.4,8-7.5,15-11,18.4
		C135.1,150.7,119.2,164.7,100.9,164.7z M86.1,98c-4.4,0-8.3,0.7-11.1,2.4c-3.9,2.3-6,6.4-6.4,12.6c-0.9,14.9,7.7,34.7,23,40.7
		c14.4,5.7,31.3-3.9,42.2-14.7c4.6-4.5,7.7-9.4,8.4-13.5l0,0c0.5-2.2,0-4.6-1.4-6.4c-3.2-4.3-8.8-6.9-14.3-9.5l-2.8-1.3
		C111.6,102.6,97,98,86.1,98z"/>
	<path class="st0" d="M195.4,75.2c2.4-2.2,15.1-0.1,17.8,0.8c7.8,2.5,12.8,6.1,18.6,11.9c6,5.9,9.4,13.9,13.4,21.2
		c9.5,17.1,29.3,31.6,49.8,27.9c13.9-2.5,21-18.8,35.8-18.5c3.1,0.1,6.2,0.6,9.2-0.2c14.5-4.1,3.9-23.6-3.7-29
		c-8.4-6-16.9-11.1-24.3-18.4C296.3,55.2,201,56.9,195.4,75.2z"/>
	<path class="st0" d="M65,188.2c-0.6,0.9,2,21.6,19.1,33.4c11.6,8,23.3-3.2,35.6,1.9c9.8,4,26.6,20,25.7,32.6
		c-1.4,19.5-13.4,57.1-38.2,55.8c-5.4-0.3-10.5-2.5-15.8-3c-4.5-0.4-9.1,0.4-13.6,0.9c-7.8,0.8-15,0.1-20-6.7
		c-3.6-5-4.9-11.2-5.4-17.4c-1.6-21.3-1.3-42.8,0.9-64.1C54.5,207.5,56.7,199.6,65,188.2z"/>
	<path class="st0" d="M122.6,203.3c3.1,8.5,8.7,15.9,16.1,21.3c1.8,1.4,3.8,2.3,6,2.9c5.6,1.1,10-3.5,12.5-7.9
		c2.6-4.4,4.2-9.3,4.5-14.5c0.5-11-5.4-16-14.8-19.6c-6.4-2.5-18-9-23.1-0.9C120.2,190.2,120.4,196.9,122.6,203.3z"/>
</g>
</svg>
