<?xml version="1.0" encoding="utf-8"?>
<!-- Generator: Adobe Illustrator 24.0.1, SVG Export Plug-In . SVG Version: 6.00 Build 0)  -->
<svg version="1.1" id="Layer_1" xmlns="http://www.w3.org/2000/svg" xmlns:xlink="http://www.w3.org/1999/xlink" x="0px" y="0px"
	 viewBox="0 0 500 500" style="enable-background:new 0 0 500 500;" xml:space="preserve">
<style type="text/css">
	.st0{fill:#FFFFFF;}
	.st1{fill:#FFA5B6;}
</style>
<title>type</title>
<g id="Layer_3">
	<path class="st0" d="M132.3,112.3c-80.5,65.8-91.5,196.8-13.1,268.8c51.5,47.3,127.2,60.7,195.2,48.2
		c99.8-18.3,132.6-79.9,132.6-111s-22.9-48.8-22.9-48.8c28.6-57.5-1-137.1-52.7-172.6C298.9,46.9,197.9,58.7,132.3,112.3z"/>
	<path class="st1" d="M265.8,65.1c37.1,0,74.1,10.1,105.7,31.8c51.6,35.5,81.3,115.1,52.7,172.6c0,0,22.9,17.8,22.9,48.8
		s-32.8,92.6-132.6,111c-15.9,2.9-32.1,4.4-48.3,4.4c-53.6,0-107.4-16.4-146.9-52.6c-78.4-72-67.5-203,13.1-268.8
		C169.3,82.1,217.7,65.1,265.8,65.1 M265.8,56c-50.2,0-101,18-139.3,49.3C83.9,140.1,58.4,192.9,56.8,250
		c-1.5,53.3,19,103.5,56.3,137.8c38.7,35.5,93,55,153.1,55c16.7,0,33.5-1.5,49.9-4.5c57.7-10.6,90.9-34.9,108.7-53.4
		c19.7-20.5,31.4-45.4,31.4-66.6c0-25.3-13.2-42.9-21-51c11.8-28.1,12.4-61.6,1.4-95.3c-11.1-34-33-64.2-60-82.7
		C344.9,67.5,306.5,55.9,265.8,56L265.8,56z"/>
	<path class="st1" d="M230.7,213.1c-9.6,0-17.2,9.7-17.2,22.2s7.6,22.2,17.2,22.2s17.3-9.7,17.3-22.2S240.4,213.1,230.7,213.1z"/>
	<path class="st1" d="M230.7,262c-12.2,0-21.7-11.7-21.7-26.7s9.6-26.8,21.8-26.8s21.8,11.8,21.8,26.8S243,262,230.7,262z
		 M230.7,217.6c-7.1,0-12.6,7.7-12.6,17.6s5.6,17.6,12.6,17.6s12.6-7.7,12.6-17.6S237.8,217.7,230.7,217.6L230.7,217.6z"/>
	<path class="st1" d="M372.9,213.1c-9.7,0-17.2,9.7-17.2,22.2s7.6,22.2,17.2,22.2s17.2-9.8,17.2-22.2S382.5,213.1,372.9,213.1z"/>
	<path class="st1" d="M372.9,262c-12.2,0-21.8-11.8-21.8-26.8s9.6-26.8,21.8-26.8s21.8,11.8,21.8,26.8S385.1,262,372.9,262z
		 M372.9,217.6c-7.1,0-12.6,7.7-12.6,17.6s5.6,17.6,12.6,17.6s12.6-7.7,12.6-17.6S380,217.7,372.9,217.6L372.9,217.6z"/>
	<path class="st1" d="M204.4,170c-2.5,0-4.6-2-4.6-4.6c0-1,0.3-2,1-2.8c5.5-6.3,13.4-9.8,21.8-9.8c10,0,18.5,8,18.9,8.3
		c1.9,1.7,2.1,4.6,0.4,6.5c-1.7,1.9-4.6,2.1-6.5,0.4c-0.1-0.1-0.2-0.2-0.3-0.3c-1.7-1.6-7.3-5.8-12.5-5.8
		c-5.5-0.1-10.8,2.2-14.6,6.3C207.1,169.4,205.8,170,204.4,170z"/>
	<path class="st1" d="M220.4,220c-2.5,0-4.6-2-4.6-4.6c0-1,0.3-2,1-2.8c5.5-6.3,13.4-9.8,21.8-9.8c10,0,18.5,8,18.8,8.3
		c1.8,1.7,1.9,4.6,0.1,6.5s-4.6,1.9-6.5,0.1c-1.7-1.6-7.3-5.8-12.5-5.8c-5.5-0.1-10.8,2.2-14.6,6.3C223.1,219.4,221.8,220,220.4,220
		z"/>
	<path class="st1" d="M363.5,170c-2.5,0-4.6-2-4.6-4.6c0-1,0.3-2,1-2.8c5.5-6.3,13.4-9.8,21.8-9.8c10,0,18.5,8,18.8,8.3
		c1.8,1.7,1.9,4.6,0.1,6.5c-1.7,1.8-4.6,1.9-6.5,0.1c-1.7-1.6-7.3-5.8-12.5-5.8c-5.5-0.1-10.8,2.2-14.6,6.3
		C366.2,169.4,364.9,170,363.5,170z"/>
	<path class="st1" d="M362.6,220c-2.5,0-4.6-2-4.6-4.6c0-1,0.4-2,1-2.8c5.5-6.2,13.4-9.8,21.8-9.8c10,0,18.5,8,18.8,8.3
		c1.8,1.7,1.9,4.6,0.2,6.5s-4.6,1.9-6.5,0.2l0,0l0,0c-1.7-1.6-7.3-5.8-12.5-5.8c-5.5-0.1-10.8,2.2-14.6,6.3
		C365.3,219.4,364,220,362.6,220z"/>
	<ellipse class="st0" cx="234.5" cy="228.2" rx="5.1" ry="6.4"/>
	<ellipse class="st0" cx="376.5" cy="228.2" rx="5.1" ry="6.4"/>
	<path class="st1" d="M276.1,436.1c-59.8,0-114.1-19.3-152.8-54.3C85.9,348,65.3,298.3,66.8,245.6c1.6-56.4,27.1-108.5,69.9-143
		c9.9-7.9,20.4-15,31.5-21c-23.2,8.1-44.9,20.1-64.1,35.5c-42.8,34.5-68.2,86.6-69.9,143c-1.5,52.7,19.1,102.4,56.5,136.3
		c38.7,35,92.9,54.3,152.8,54.3c16.6,0,33.3-1.5,49.6-4.5c29.9-5.4,53.2-14.5,71.2-24.5c-12.6,4.3-25.5,7.7-38.6,10
		C309.3,434.6,292.7,436.1,276.1,436.1z"/>
	<path class="st1" d="M243.5,452.9c-60.4,0-115.2-19.5-154.3-54.9C51.2,363.7,30.4,313.4,31.9,260c1.7-57.1,27.4-109.8,70.7-144.7
		c19.4-15.5,41.3-27.6,64.8-35.8l1.9,4.2c-11,6-21.4,12.9-31.2,20.7c-42.2,34-67.4,85.5-69,141.3c-1.5,52,18.8,101.1,55.8,134.5
		c38.2,34.6,92,53.7,151.2,53.7c16.5,0,33-1.5,49.2-4.4c13-2.3,25.8-5.6,38.3-9.9l1.9,4.2c-20.8,11.6-45,19.9-71.9,24.8
		C277,451.4,260.3,452.9,243.5,452.9z M143.2,94.7c-13.4,6.7-26,14.8-37.7,24.1c-42.2,34.1-67.4,85.5-69,141.2
		C35,312.2,55.3,361.2,92.3,394.7c38.2,34.6,91.9,53.7,151.2,53.7c16.5,0,33-1.5,49.2-4.4c15.3-2.7,30.2-6.8,44.7-12.3
		c-3.7,0.8-7.5,1.6-11.3,2.3c-16.5,3-33.3,4.5-50,4.5c-60.4,0-115.2-19.5-154.3-54.9c-38-34.4-58.8-84.7-57.3-138.1
		c1.7-57.1,27.5-109.8,70.7-144.7C137.8,98.7,140.5,96.7,143.2,94.7z"/>
	<path class="st1" d="M321.4,285.6c-9.6,0-17.4-7.8-17.4-17.4c0-9.6,7.8-17.4,17.4-17.4c9.1,0,16.7,7,17.3,16.1l0,0
		c0.7,9.6-6.4,17.9-16,18.6C322.3,285.6,321.8,285.6,321.4,285.6z M321.4,260h-0.6c-4.5,0.3-7.9,4.3-7.6,8.8
		c0.2,2.2,1.2,4.2,2.8,5.6c3.4,3,8.6,2.6,11.6-0.9c1.4-1.7,2.1-3.8,2-6l0,0C329.3,263.3,325.7,260,321.4,260L321.4,260z"/>
	<path class="st1" d="M324.1,132.8h-0.4c-0.8,0-15.3-0.9-29.7-14.9c-19.5,16.5-36.2,12.2-37.1,12c-4.9-1.3-7.8-6.3-6.5-11.2
		s6.3-7.8,11.2-6.5c0.8,0.1,9.5,1.6,21.1-8.6c-1.3-2.1-2.5-4.3-3.7-6.7c-13.4-26.7-8.9-42.7-5.1-49.8c3.5-6.9,10.1-11.6,17.8-12.7
		c8.8-1.2,18.1,4.2,23.8,13.6c8.9,14.8,6.5,34.7-6.4,53.2c-0.8,1.2-1.7,2.3-2.5,3.4c9.2,9.1,17.7,9.9,18.2,9.9
		c5,0.4,8.8,4.7,8.5,9.7C332.9,129,328.9,132.8,324.1,132.8z M294,52.5h-0.1c-1.6,0.2-2.9,1.3-4,3.2c-2.8,5.2-2.9,16.6,5.4,33l0,0
		c11.2-17.3,6.3-28.3,4.4-31.4C297.6,53.8,294.9,52.5,294,52.5z"/>
	<path class="st1" d="M308.7,349.9c-35.7,0-51.3-26.5-52-27.6c-2.4-4.4-0.8-10,3.7-12.4c4.3-2.3,9.6-0.9,12.1,3.3
		c0.6,0.9,12.2,19.8,39.1,18.4c24.8-1.3,36.9-21.6,37.4-22.5c2.7-4.3,8.3-5.6,12.6-3c4.1,2.5,5.5,7.8,3.3,12.1
		c-0.7,1.2-17.4,29.8-52.3,31.6C311.3,349.8,310,349.9,308.7,349.9z"/>
</g>
</svg>
