<?xml version="1.0" encoding="utf-8"?>
<!-- Generator: Adobe Illustrator 24.0.1, SVG Export Plug-In . SVG Version: 6.00 Build 0)  -->
<svg version="1.1" id="Layer_1" xmlns="http://www.w3.org/2000/svg" xmlns:xlink="http://www.w3.org/1999/xlink" x="0px" y="0px"
	 viewBox="0 0 700 700" style="enable-background:new 0 0 700 700;" xml:space="preserve">
<style type="text/css">
	.st0{fill:#FFFFFF;}
	.st1{fill:#FFA5B6;}
	.st2{fill:#FFCEE5;}
</style>
<title>type</title>
<g id="Layer_3">
	<path class="st0" d="M201.5,301.2C110,376,97.5,524.9,186.6,606.7c58.5,53.8,144.6,69,221.9,54.8
		c113.3-20.8,150.7-90.7,150.7-126.1s-26-55.5-26-55.5c32.5-65.4-1.1-155.9-59.9-196.2C390.8,226.8,276,240.2,201.5,301.2z"/>
	<path class="st1" d="M353.3,247.5c42.2,0,84.2,11.4,120.2,36.2c58.7,40.4,92.4,130.9,59.9,196.2c0,0,26,20.2,26,55.5
		c0,35.2-37.4,105.4-150.7,126.2c-18.1,3.3-36.5,5-54.9,5c-60.9,0-122.1-18.6-167-59.8C97.6,524.9,110,376,201.6,301.2
		C243.6,266.8,298.5,247.6,353.3,247.5 M353.3,237.1c-57.1,0-114.8,20.5-158.4,56c-48.5,39.7-77.4,99.7-79.4,164.6
		c-1.7,60.6,21.6,117.7,64,156.7c44,40.4,105.7,62.5,174.1,62.5c19,0,38-1.8,56.7-5.2c65.6-12.1,103.3-39.7,123.6-60.7
		c22.4-23.3,35.7-51.6,35.7-75.7c0-28.8-15-48.8-23.9-58c13.4-31.9,14.1-70,1.6-108.3c-12.6-38.7-37.5-73-68.2-94
		c-36.2-24.9-79.7-38-126.1-38L353.3,237.1z"/>
	<path class="st1" d="M313.4,415.7c-10.9,0-19.6,11-19.6,25.2c0,14.2,8.6,25.2,19.6,25.2c10.9,0,19.6-11.1,19.6-25.2
		C333,426.9,324.3,415.7,313.4,415.7z"/>
	<path class="st1" d="M313.4,471.5c-13.9,0-24.8-13.4-24.8-30.5c0-17.1,10.9-30.5,24.8-30.5s24.8,13.3,24.8,30.4
		S327.3,471.5,313.4,471.5z M313.4,421c-8.1,0-14.3,8.8-14.3,20s6.4,20,14.3,20s14.3-8.8,14.3-20S321.5,421,313.4,421L313.4,421z"/>
	<path class="st1" d="M474.9,415.7c-10.9,0-19.6,11-19.6,25.2c0,14.2,8.6,25.2,19.6,25.2c10.9,0,19.6-11,19.6-25.2
		C494.5,426.8,486,415.7,474.9,415.7z"/>
	<path class="st1" d="M474.9,471.5c-13.9,0-24.8-13.4-24.8-30.5c0-17.1,10.9-30.5,24.8-30.5c13.9,0,24.8,13.4,24.8,30.5
		C499.7,458,488.8,471.5,474.9,471.5z M474.9,421c-8.1,0-14.3,8.8-14.3,20s6.4,20,14.3,20s14.3-8.8,14.3-20S483,421,474.9,421
		L474.9,421z"/>
	<path class="st1" d="M301.7,423.6c-2.8,0-5.2-2.4-5.2-5.2c0-1.1,0.3-2.3,1.1-3.2c6.3-7.2,15.2-11.1,24.8-11.1
		c11.4,0,21,9.1,21.4,9.4c2,1.9,2.2,5.2,0.1,7.4c-2,2.2-5.2,2.2-7.4,0.1c-1.9-1.8-8.3-6.6-14.2-6.6c-6.3-0.1-12.3,2.5-16.6,7.2
		C304.6,422.9,303.2,423.6,301.7,423.6z"/>
	<path class="st1" d="M465.4,380.5c-0.9,0-1.7-0.2-2.5-0.6c-2.5-1.4-3.4-4.5-2-7c4.9-8.1,13.1-13.6,22.4-15.2
		c11.3-1.9,22.3,5.2,22.7,5.6c2.4,1.6,3.1,4.8,1.5,7.2s-4.8,3.1-7.2,1.5c-2.2-1.5-9.2-5.1-15.1-4c-6.3,1-11.7,4.7-15.1,9.9
		C469,379.5,467.2,380.5,465.4,380.5z"/>
	<path class="st1" d="M463.2,423.6c-2.8,0-5.2-2.3-5.2-5.2c0-1.1,0.3-2.3,1.1-3.2c6.3-7.2,15.2-11.1,24.8-11.1
		c11.4,0,21,9.1,21.4,9.4c2,1.9,2.2,5.2,0.1,7.4c-2,2.2-5.2,2.2-7.4,0.1c-1.9-1.8-8.3-6.6-14.2-6.6c-6.3-0.1-12.3,2.5-16.6,7.2
		C466.3,422.9,464.8,423.6,463.2,423.6z"/>
	<ellipse class="st0" cx="317.6" cy="433" rx="5.8" ry="7.3"/>
	<ellipse class="st0" cx="479" cy="433" rx="5.8" ry="7.3"/>
	<path class="st1" d="M327.7,379c-1.7,0-3.4-0.9-4.3-2.4c-3.9-5-9.5-8.2-15.9-8.6c-5.9-0.6-12.7,3.6-14.8,5.2
		c-2.3,1.8-5.6,1.4-7.3-0.8c-1.8-2.3-1.4-5.6,0.8-7.3l0,0c0.5-0.3,10.9-8.4,22.2-7.5c9.4,0.8,18.1,5.7,23.6,13.3
		c1.6,2.4,0.9,5.7-1.6,7.2C329.7,378.7,328.7,379,327.7,379L327.7,379z"/>
	<path class="st2" d="M412,500.1c9.1,0.3,23-23.8,19.7-28.9c-3.3-5.1-38.5-7.7-44-0.3C382.2,478.3,412,500.1,412,500.1z"/>
	<path class="st1" d="M412.1,505.3h-0.3h-1.6l-1.3-0.9c-5.9-4.3-25.5-19.3-27.1-29.7c-0.5-2.4,0.1-4.9,1.6-6.8
		c4.5-6.1,17.2-6.9,26.9-6.6c8,0.2,21.9,1.6,25.6,7.3c3.3,5.1-0.2,13.5-3.8,19.8C429.9,492.3,421.6,505.3,412.1,505.3z M392.2,473.6
		c1.3,3.8,10.6,13.1,20.9,20.9c1.7-1,3.3-2.4,4.5-3.9c5.2-5.8,8.6-13.4,9.1-16.5C420.6,471.2,397.4,470.3,392.2,473.6z"/>
	<path class="st1" d="M368.9,572.6c-5.9,0-11.8-0.8-17.5-2.3c-2.8-0.7-4.4-3.5-3.8-6.3s3.5-4.4,6.3-3.8c7.8,2,16,2.5,24,1.1
		c21.7-4,29.4-18.8,29.8-19.4c1.3-2.6,4.4-3.6,7-2.3c1.3,0.7,2.3,1.8,2.6,3.2c0.1,0.5,4,12.1,20.3,13.6c6.1,0.6,12.2-0.7,17.5-3.8
		c2.5-1.4,5.7-0.6,7.2,1.9c1.5,2.5,0.6,5.7-1.9,7.2c-7.2,4.1-15.5,5.9-23.6,5c-13.2-1.3-20.7-7.5-24.9-12.8
		c-5.5,6.3-15.5,14.6-32.1,17.6C376.2,572.3,372.5,572.6,368.9,572.6z"/>
	<path class="st1" d="M412.3,549.6c-0.7,0-1.4-0.1-2-0.5c-2.6-1.1-3.9-4.2-2.7-6.8l0,0c2.7-6.9,4.3-14.3,4.7-21.8
		c0.1-6.8-1-13.6-3.3-20.1c-1-2.6,0.2-5.7,2.8-6.8c2.6-1,5.7,0.2,6.8,2.8l0,0c2.8,7.7,4.2,15.9,4.1,24.2c-0.3,8.8-2.3,17.5-5.6,25.7
		C416.3,548.3,414.4,549.6,412.3,549.6z"/>
	<path class="st1" d="M570.4,526.8c-1.1,0-2.2-0.3-3.1-1c-42.4-31.6-103.5-16.6-104-16.5c-2.7,0.7-5.6-1-6.4-3.8
		c-0.8-2.7,1-5.6,3.8-6.4c2.7-0.7,66.4-16.5,112.9,18.2c2.3,1.7,2.8,5,1,7.3C573.6,526.1,572,526.9,570.4,526.8z"/>
	<path class="st1" d="M455.1,496.6c-2.8,0-5.2-2.3-5.2-5.2c0-2.2,1.3-4.1,3.3-4.9c3.2-1.3,78-30.5,144.4-1.9
		c2.6,1.1,3.9,4.2,2.7,6.8c-1.1,2.6-4.2,3.9-6.8,2.7c-62.5-26.9-135.7,1.7-136.4,2C456.4,496.4,455.7,496.6,455.1,496.6z"/>
	<path class="st0" d="M349,275.6C362.3,201.1,302.1-13.8,234,24.8c-91.1,51.6-6.9,237.7,23.9,277.6"/>
	<path class="st1" d="M257.9,307.6c-1.6,0-3.2-0.8-4.1-2c-23.8-30.7-79.1-146.4-63.3-225.2c5.6-27.6,19.3-47.7,41-60.1
		c14.1-8,29.1-6.8,43.4,3.3c23.8,16.8,47,59.7,63.4,117.6c14.9,52.1,21,105.2,15.6,135.3c-0.5,2.8-3.2,4.7-6,4.2
		c-2.8-0.5-4.7-3.2-4.2-6c5.1-28.6-0.9-79.9-15.3-130.6c-15.7-54.8-37.9-96.6-59.5-111.9c-11.1-7.8-21.7-8.8-32.3-2.7
		c-18.9,10.7-31,28.5-35.9,53.1C186.3,154.5,237.1,267,262,299.2c1.7,2.3,1.4,5.6-0.9,7.3C260.2,307.2,259.1,307.6,257.9,307.6z"/>
	<path class="st0" d="M490.5,299c20.5-21.8,99.9-188.3,50.8-236.2C459.8-16.8,413.6,211.3,417,283.5"/>
	<path class="st1" d="M490.5,304.1c-2.8,0-5.2-2.4-5.2-5.2c0-1.4,0.5-2.6,1.4-3.5c19.9-21.1,96.6-184.4,50.9-229
		c-14.7-14.3-28.1-18.4-41-12.6C448.3,75.4,419.4,226,422,283.2c0.1,2.8-2,5.3-5,5.5c-2.8,0.1-5.3-2-5.5-5l0,0
		c-2.7-59.1,25.7-214.8,80.7-239.4c17.1-7.6,34.7-2.7,52.5,14.7c52.1,50.8-28.3,219.8-50.6,243.5C493.4,303.5,492,304.2,490.5,304.1
		z"/>
	<path class="st1" d="M260.5,530.6c-2.8,0-5.2-2.3-5.2-5.2c0-1.6,0.7-3,1.8-4c44.2-37.4,108.8-25.4,111.5-24.9
		c2.8,0.6,4.7,3.3,4.1,6.1c-0.6,2.8-3.3,4.7-6.1,4.1l0,0c-0.6-0.1-62.5-11.5-102.9,22.6C262.9,530.1,261.8,530.6,260.5,530.6z"/>
	<path class="st1" d="M233.5,499.9c-2.8,0-5.2-2.3-5.2-5.1c0-1.9,1.1-3.8,2.8-4.7c64.6-32.5,141.1-7.7,144.3-6.7
		c2.7,0.9,4.2,3.9,3.3,6.6c-0.9,2.7-3.9,4.2-6.6,3.3l0,0c-0.7-0.2-75.7-24.4-136.3,6.1C235.2,499.6,234.4,499.9,233.5,499.9z"/>
	<path class="st2" d="M278.8,288.1c5.3,5.9,28.5,0.3,34.3-6.4c11.1-12.8-34-214.2-65.9-201.2C186.1,105.5,269.6,278.1,278.8,288.1z"
		/>
	<path class="st1" d="M287.4,295.8c-5.7,0-9.9-1.4-12.5-4.2l0,0c-8.9-9.7-66.3-127.4-53.2-185.5c3.4-15.1,11.3-25.4,23.5-30.4
		c7.6-3.1,15.5,0.8,23.2,11.7c26,36.4,62,182.4,48.7,197.8c-5.5,6.3-19.4,10.5-29.2,10.7L287.4,295.8z M282.6,284.6
		c3.3,2.7,22.1-1,26.6-6.3c6.5-13.3-24-158.5-52.6-189.1c-2.2-2.3-5.1-4.8-7.4-3.9c-9,3.6-14.6,11.1-17.3,23
		C219.4,163.6,276.8,278.1,282.6,284.6z"/>
	<path class="st2" d="M471.5,292.1c-7,3.9-19.1,0.8-25.2-5.6c-11.8-12.3,44-202.7,75.5-188.7C570,119.4,480.3,287.2,471.5,292.1z"/>
	<path class="st1" d="M464,298.9c-8.1,0-15.8-3.2-21.6-8.8c-13.9-14.3,27.3-144.2,53.3-181.4c10-14.2,19.4-19.6,28.1-15.7
		c10.8,4.8,16.6,15.5,17.3,31.6c2.2,53.4-56.3,166.1-67.1,172l0,0C470.9,298.2,467.4,299,464,298.9z M450.2,283.1
		c4.7,4.7,13.8,6.8,18.5,4.5c9.1-8.8,68.8-121,61.4-168.4c-1.4-8.6-4.8-14.1-10.5-16.7c-2.7-1.3-6.5,1.8-9.2,4.5
		C480.2,137.9,444.7,269.5,450.2,283.1z"/>
</g>
</svg>
