<?xml version="1.0" encoding="utf-8"?>
<!-- Generator: Adobe Illustrator 24.0.1, SVG Export Plug-In . SVG Version: 6.00 Build 0)  -->
<svg version="1.1" id="Layer_1" xmlns="http://www.w3.org/2000/svg" xmlns:xlink="http://www.w3.org/1999/xlink" x="0px" y="0px"
	 viewBox="0 0 500 500" style="enable-background:new 0 0 500 500;" xml:space="preserve">
<style type="text/css">
	.st0{fill:#FFFFFF;}
	.st1{fill:#FFA5B6;}
	.st2{fill:#FFCEE5;}
</style>
<title>type</title>
<g id="Layer_3">
	<path class="st0" d="M124.8,120.3c-80.5,65.8-91.5,196.8-13.1,268.8c51.5,47.3,127.2,60.7,195.2,48.2
		c99.8-18.3,132.6-79.9,132.6-111s-22.9-48.8-22.9-48.8c28.6-57.5-1-137.1-52.7-172.6C291.3,54.9,190.3,66.8,124.8,120.3z"/>
	<path class="st1" d="M258.3,73.1c37.1,0,74.1,10.1,105.7,31.8c51.6,35.5,81.3,115.1,52.7,172.6c0,0,22.9,17.8,22.9,48.8
		s-32.9,92.6-132.6,111c-15.9,2.9-32.1,4.4-48.3,4.4c-53.6,0-107.4-16.4-146.9-52.6c-78.4-72-67.5-203,13.1-268.8
		C161.8,90.1,210.1,73.2,258.3,73.1 M258.3,64c-50.2,0-101,17.9-139.3,49.3C76.3,148.2,50.9,201,49.2,258.1
		c-1.5,53.3,19,103.6,56.3,137.8c38.7,35.5,93,55,153.1,55c16.7,0,33.5-1.5,49.9-4.6c57.7-10.6,90.9-34.9,108.7-53.4
		c19.7-20.5,31.4-45.4,31.4-66.6c0-25.2-13.2-42.9-21-51c11.8-28.1,12.4-61.6,1.4-95.3c-11.1-34-33-64.2-60-82.8
		C337.4,75.5,299,64,258.3,64L258.3,64z"/>
	<path class="st0" d="M355.6,107.6c9.1-13.2,40.5-40.6,67.6-13.6c21,21,2.3,53.5-8.4,65c0,0,5.5,11.3,7.1,15.8"/>
	<path class="st1" d="M421.9,179.4c-2,0-3.7-1.2-4.3-3.1c-1.2-3.5-5.4-12.2-6.9-15.3c-0.8-1.7-0.5-3.8,0.8-5.1
		c6.8-7.3,28.4-38.8,8.5-58.6c-7.5-7.5-16-10.9-25-10.1c-15.5,1.4-29.8,14.5-35.6,23c-1.4,2.1-4.3,2.6-6.4,1.2
		c-2.1-1.4-2.6-4.3-1.2-6.4l0,0c5.8-8.5,22.2-25,42.3-26.9c11.9-1.1,22.8,3.2,32.3,12.7c10.3,10.3,13.4,24.3,8.8,40.5
		c-3,10.4-8.1,20-15,28.4c1.8,3.7,4.8,10.2,6,13.6c0.8,2.4-0.4,5-2.8,5.8C423,179.3,422.4,179.4,421.9,179.4z"/>
	<path class="st2" d="M380.6,122.2c1.4-6.6,20.3-26.4,31.8-16.2c11.9,10.6,2,23.9-5.9,34.2C399.3,149.5,379.2,128.8,380.6,122.2z"/>
	<path class="st1" d="M401.6,147.2c-2.4-0.1-4.8-0.6-6.9-1.7c-8.5-3.9-20.3-16.4-18.6-24.2l0,0c1.3-6,11.5-18,22.4-21.6
		c6.5-2.1,12.3-1.1,16.8,3c15.3,13.6,2.4,30.4-5.3,40.4C408,145.7,404.9,147.2,401.6,147.2z M385.1,123c0.3,3.1,8.2,12.6,14.8,14.7
		c2.2,0.7,2.6,0.1,2.9-0.2c10.2-13.3,14.1-21.3,6.5-28c-1.3-1.2-3.6-2.5-7.9-1.1C393.3,111,385.9,120.3,385.1,123z"/>
	<path class="st0" d="M210.1,96.2c0,0-23.9-57.4-64.9-48.2C79.9,62.7,107,148.6,107,148.6"/>
	<path class="st1" d="M107,153.1c-2,0-3.8-1.3-4.4-3.2c-0.6-1.9-14.8-47.9,3.5-79.7c7.9-13.8,20.8-22.8,38.1-26.7
		c44.2-9.9,69.1,48.4,70.1,50.9c1,2.3-0.1,5-2.5,6c-2.3,1-5-0.1-6-2.5l0,0c-0.2-0.5-23-53.8-59.7-45.5
		c-14.7,3.3-25.5,10.8-32.1,22.3c-16.3,28.4-2.8,72-2.7,72.4c0.8,2.4-0.6,5-3,5.7c0,0,0,0,0,0C107.9,153.1,107.5,153.1,107,153.1z"
		/>
	<path class="st2" d="M141,71.9c-29,13.1-20.1,59-11,62.7c5.6,2.2,50-15.7,53.3-23C186.9,103.4,161.5,62.6,141,71.9z"/>
	<path class="st1" d="M131,139.2c-0.9,0-1.9-0.1-2.7-0.4c-7.3-2.9-11.3-17.1-11.6-29.5c-0.4-19.8,7.8-34.9,22.4-41.5l0,0
		c9.5-4.3,20.7-0.7,31.5,10.1c9.3,9.3,20.6,27.3,16.8,35.6S144,139.2,131,139.2z M131.5,130.2L131.5,130.2c7.3,0,44.1-15,47.7-20.6
		c0.5-3.1-7.1-19.4-19-28.9c-4.6-3.6-11.3-7.4-17.3-4.6l0,0c-13.8,6.2-16.6,20.9-17,29C125.1,118.3,129.4,128.4,131.5,130.2
		L131.5,130.2z"/>
	<path class="st1" d="M223.2,221.1c-9.6,0-17.2,9.7-17.2,22.2s7.6,22.2,17.2,22.2s17.2-9.7,17.2-22.2S232.8,221.1,223.2,221.1z"/>
	<path class="st1" d="M223.2,270.1c-12.2,0-21.8-11.8-21.8-26.8s9.6-26.8,21.8-26.8s21.8,11.8,21.8,26.8S235.4,270.1,223.2,270.1z
		 M223.2,225.7c-7.1,0-12.6,7.7-12.6,17.6s5.5,17.6,12.6,17.6s12.6-7.7,12.6-17.6S230.3,225.7,223.2,225.7L223.2,225.7z"/>
	<path class="st1" d="M365.3,221.1c-9.6,0-17.2,9.7-17.2,22.2s7.6,22.2,17.2,22.2s17.2-9.7,17.2-22.2S375,221.1,365.3,221.1z"/>
	<path class="st1" d="M365.3,270.1c-12.2,0-21.8-11.8-21.8-26.8s9.6-26.8,21.8-26.8s21.8,11.8,21.8,26.8S377.5,270.1,365.3,270.1z
		 M365.3,225.7c-7.1,0-12.6,7.7-12.6,17.6s5.5,17.6,12.6,17.6s12.6-7.7,12.6-17.6S372.4,225.7,365.3,225.7L365.3,225.7z"/>
	<path class="st1" d="M196.9,178.1c-1,0-2-0.3-2.9-1c-2-1.6-2.3-4.4-0.7-6.4c5.5-6.2,13.4-9.8,21.7-9.7c10,0,18.5,8,18.9,8.3
		c1.8,1.8,1.7,4.7-0.1,6.5c-1.7,1.7-4.4,1.7-6.2,0.1c-1.7-1.6-7.3-5.8-12.5-5.8c-5.5-0.1-10.8,2.2-14.6,6.3
		C199.5,177.5,198.2,178.1,196.9,178.1z"/>
	<path class="st1" d="M212.9,228c-2.5,0-4.6-2-4.6-4.6c0-1,0.3-2,1-2.8c5.5-6.2,13.4-9.8,21.7-9.7c10,0,18.5,8,18.8,8.3
		c1.8,1.7,1.9,4.6,0.1,6.5s-4.6,1.9-6.5,0.1c-1.7-1.6-7.3-5.8-12.5-5.8c-5.5-0.1-10.8,2.2-14.6,6.3C215.5,227.4,214.2,228,212.9,228
		z"/>
	<path class="st1" d="M356,178.1c-2.5,0-4.6-2-4.6-4.6c0-1,0.3-2,1-2.8c5.5-6.2,13.4-9.8,21.7-9.7c10,0,18.5,8,18.8,8.3
		c1.8,1.7,1.9,4.6,0.1,6.5c-1.7,1.8-4.6,1.9-6.5,0.1c-1.7-1.6-7.3-5.8-12.5-5.8c-5.5-0.1-10.8,2.2-14.6,6.3
		C358.6,177.5,357.4,178.1,356,178.1z"/>
	<path class="st1" d="M355,228c-2.5,0-4.6-2-4.6-4.5c0-1,0.3-2,1-2.8c5.5-6.2,13.4-9.8,21.8-9.8c10,0,18.5,8,18.8,8.3
		c1.8,1.7,1.9,4.6,0.1,6.5s-4.6,1.9-6.5,0.1c-1.7-1.6-7.3-5.8-12.5-5.8c-5.5-0.1-10.8,2.2-14.6,6.3C357.7,227.4,356.4,228,355,228z"
		/>
	<ellipse class="st0" cx="226.9" cy="236.3" rx="5.1" ry="6.4"/>
	<ellipse class="st0" cx="368.9" cy="236.3" rx="5.1" ry="6.4"/>
	<path class="st1" d="M285.2,366.7c-14.2,0-25.6-8.2-26.2-8.6c-2-1.6-2.3-4.4-0.8-6.4c1.5-1.9,4.2-2.3,6.1-1l0,0
		c0.1,0.1,13,9.1,26.3,6.3c4.4-0.9,8.6-3,12-6c5.6-5.1,14.2-5.4,20.1-0.6c2.1,1.6,4.6,2.6,7.2,2.8c10.1,1.1,16-8.4,16-8.5
		c1.3-2.2,4.1-2.9,6.3-1.6c2.2,1.3,2.9,4.1,1.6,6.3l0,0c-0.4,0.6-9,14.7-24.9,12.9c-4.3-0.4-8.4-2.1-11.8-4.7
		c-2.5-2.1-6.1-2-8.5,0.2c-4.6,4-10.1,6.8-16.1,8.1C290.2,366.5,287.7,366.8,285.2,366.7z"/>
	<path class="st1" d="M281.8,295.9c-2.3,0-4.3-1.8-4.5-4.1c-0.1-1.3-1.2-13.3,4.5-20c2.2-2.6,5.4-4.2,8.8-4.4
		c12.2-0.7,16.8,14,17.7,22.8c0.3,2.5-1.6,4.8-4.1,5s-4.8-1.6-5-4.1c-0.3-3.1-2.6-14.6-7.9-14.6h-0.2c-0.9,0-1.8,0.4-2.4,1.2
		c-2.4,2.8-2.7,9.5-2.3,13.1c0.2,2.5-1.6,4.7-4.1,5C282.1,295.8,281.9,295.9,281.8,295.9z"/>
	<path class="st1" d="M325.6,295.9c-2.3,0-4.3-1.8-4.5-4.1c-0.1-1.3-1.2-13.3,4.5-20c2.2-2.6,5.4-4.2,8.9-4.4
		c12.1-0.7,16.8,14,17.7,22.8c0.3,2.5-1.6,4.8-4.1,5s-4.8-1.6-5-4.1c-0.3-3.2-2.5-14.9-8.1-14.6c-0.9,0-1.8,0.4-2.4,1.2
		c-2.4,2.8-2.7,9.5-2.3,13.1c0.2,2.5-1.6,4.7-4.1,5C325.9,295.9,325.8,295.9,325.6,295.9z"/>
	<path class="st1" d="M281.3,382c-6,0-12-1.3-14-3.2c-1.1-1.1-3.4-3.4-1.3-18.9c0.3-2.5,2.6-4.2,5.1-3.9c0,0,0.1,0,0.1,0
		c2.5,0.3,4.2,2.6,3.9,5.1c-0.5,3.7-0.8,7.4-0.7,11.1c3.3,0.8,10.5,1,12.7,0.1c0.4-1.3,0.1-5.2-0.8-8.3c-0.7-2.4,0.7-5,3.1-5.6
		s5,0.7,5.6,3.1c0.8,2.9,3.1,12.7-1.5,17.3C291.3,381,286.3,382,281.3,382z M274.5,373.4L274.5,373.4z"/>
	<path class="st1" d="M336.1,377.4c-4.7,0-9.1-0.8-10.8-2.2c-2-1.7-3.1-4.7-3-15c0-2.5,2.1-4.5,4.6-4.5h0c2.5,0,4.5,2.1,4.5,4.6
		c-0.1,2.6,0,5.2,0.3,7.7c3.4,0.5,10.4,0.1,12.6-1c0.3-1.6-0.5-5.9-1.8-9.4c-0.9-2.4,0.3-5,2.7-5.9c2.4-0.9,5,0.3,5.9,2.7
		c1.5,4,4.5,13.7,0.3,18.5C348.9,376.1,342.2,377.4,336.1,377.4z"/>
</g>
</svg>
